<svg version="1.1" xmlns="http://www.w3.org/2000/svg" viewBox="0 0 2009.7958003294395 707.8308761325062" width="2009.7958003294395" height="707.8308761325062" filter="invert(93%) hue-rotate(180deg)">
  <!-- svg-source:excalidraw -->
  
  <defs>
    <style>
      @font-face {
        font-family: "Virgil";
        src: url("https://excalidraw.com/Virgil.woff2");
      }
      @font-face {
        font-family: "Cascadia";
        src: url("https://excalidraw.com/Cascadia.woff2");
      }
    </style>
  </defs>
  <rect x="0" y="0" width="2009.7958003294395" height="707.8308761325062" fill="#ffffff"></rect><g stroke-linecap="round" transform="translate(354.0100860437258 285.30952380952385) rotate(0 147.5 61.5)"><path d="M-1.99 -2.72 C99.17 0.35, 201.13 -0.62, 293.43 1 M0.25 -1.14 C59.79 1.18, 120.71 2.45, 295.34 -0.24 M295 3.3 C296.43 27.98, 296.91 55.87, 298.64 126.39 M293.33 1.17 C291.7 34.98, 292.91 71.63, 296.65 122.35 M295.46 123.72 C224.04 118.92, 161.17 118.49, 1.48 124.06 M296.09 123.05 C191.56 124.1, 91.26 121.35, -0.53 123.57 M2.69 126.89 C-0.71 87.36, -0.5 59.85, -0.5 -3.39 M0.9 121.07 C1.61 85.57, 2.18 46.26, -1.08 0.63" stroke="#000000" stroke-width="2" fill="none"></path></g><g transform="translate(359.0100860437258 333.80952380952374) rotate(0 142.5 13)"><text x="142.5" y="18" font-family="Virgil, Segoe UI Emoji" font-size="20px" fill="#000000" text-anchor="middle" style="white-space: pre;" direction="ltr">API Gateway</text></g><g stroke-linecap="round" transform="translate(1574.7958003294393 114.34523809523807) rotate(0 147.5 61.5)"><path d="M-2.94 -0.21 C70.53 3.84, 145.99 2.08, 295.72 0.23 M1.46 0.26 C91.94 -2.78, 182.55 -2.16, 295.03 0.56 M297.8 -0.29 C298.65 32.34, 298.94 70.15, 293.75 121.77 M294.31 -1.54 C294.35 32.92, 296.51 66.03, 293.81 122.79 M294.51 123.73 C204.8 117.73, 110.26 117.28, -0.18 124.98 M294.88 124.18 C177.76 122.51, 63.42 121.78, 0.45 122.29 M2.39 120.52 C-0.57 82.07, 3.79 47.99, 2.01 2.3 M0.52 124.53 C0.31 95.41, -0.28 63.2, 1.68 1.2" stroke="#000000" stroke-width="2" fill="none"></path></g><g transform="translate(1579.7958003294393 162.84523809523807) rotate(0 142.5 13)"><text x="142.5" y="18" font-family="Virgil, Segoe UI Emoji" font-size="20px" fill="#000000" text-anchor="middle" style="white-space: pre;" direction="ltr">Auth Service</text></g><g stroke-linecap="round" transform="translate(1569.0458003294393 325.8452380952381) rotate(0 147.5 61.5)"><path d="M-0.24 2.37 C113.08 1.4, 231.94 -0.06, 295.89 -1.42 M0.88 -0.92 C93.52 3.04, 189.28 4.96, 295.74 0.85 M296.05 3.07 C295.56 32.43, 294.38 55.6, 298.36 125.39 M295.19 -1.91 C293.86 33.25, 292.64 66.17, 295.75 124.3 M296.35 120.27 C189.19 121.87, 87.18 125.63, 2.61 120.27 M295.66 121.68 C189.33 119.64, 83.25 120.38, 0.18 124.09 M1.97 122.22 C-0.93 93.82, -2.54 57.9, 3.76 -1.58 M1.62 124.13 C-1.15 78.1, -3.16 36.79, -0.2 0.39" stroke="#000000" stroke-width="2" fill="none"></path></g><g transform="translate(1574.0458003294393 373.3452380952381) rotate(0 142.5 13)"><text x="142.5" y="18" font-family="Virgil, Segoe UI Emoji" font-size="20px" fill="#000000" text-anchor="middle" style="white-space: pre;" direction="ltr">Advert  Service</text></g><g stroke-linecap="round" transform="translate(11.24779877138053 279.1838640024922) rotate(0 106.5492367679197 63.76851694988886)"><path d="M1.71 0.13 C51.1 0.49, 99.58 1.75, 214.03 -0.36 M0.37 0.68 C52.82 -0.05, 106.22 1.26, 213.39 0.55 M212.89 -0.7 C214.16 40.36, 214.29 81.37, 212.75 125.74 M212.11 -0.48 C214.06 38.16, 213.38 77, 212.42 128.04 M213.83 127.3 C141.48 127.37, 69.14 126.81, 0.88 126.12 M213.12 128.08 C133.9 128.73, 55.39 129.25, 0.16 127.2 M1.7 128.35 C2.33 98.25, 1.79 70.18, -0.96 -1.4 M0.27 128.42 C-0.81 80.55, -0.91 31.82, -0.97 -0.21" stroke="#000000" stroke-width="1" fill="none"></path></g><g stroke-linecap="round"><g transform="translate(9.67322644506578 296.43243929272194) rotate(0 107.82505726490433 0.18169096712949795)"><path d="M1.17 0.09 C36.97 0.14, 179.83 -0.27, 215.32 -0.17 M0.33 -0.91 C35.97 -0.63, 179.24 1.34, 214.71 1.28" stroke="#000000" stroke-width="1" fill="none"></path></g></g><g stroke-linecap="round" transform="translate(18.72641013874852 286.30176908230465) rotate(0 4.167487507443639 4.167487507443639)"><path d="M8.33 4.17 C8.33 4.41, 8.31 4.65, 8.27 4.89 C8.23 5.13, 8.17 5.37, 8.08 5.59 C8 5.82, 7.9 6.04, 7.78 6.25 C7.66 6.46, 7.52 6.66, 7.36 6.85 C7.2 7.03, 7.03 7.2, 6.85 7.36 C6.66 7.52, 6.46 7.66, 6.25 7.78 C6.04 7.9, 5.82 8, 5.59 8.08 C5.37 8.17, 5.13 8.23, 4.89 8.27 C4.65 8.31, 4.41 8.33, 4.17 8.33 C3.93 8.33, 3.68 8.31, 3.44 8.27 C3.21 8.23, 2.97 8.17, 2.74 8.08 C2.52 8, 2.29 7.9, 2.08 7.78 C1.87 7.66, 1.67 7.52, 1.49 7.36 C1.3 7.2, 1.13 7.03, 0.98 6.85 C0.82 6.66, 0.68 6.46, 0.56 6.25 C0.44 6.04, 0.33 5.82, 0.25 5.59 C0.17 5.37, 0.11 5.13, 0.06 4.89 C0.02 4.65, 0 4.41, 0 4.17 C0 3.93, 0.02 3.68, 0.06 3.44 C0.11 3.21, 0.17 2.97, 0.25 2.74 C0.33 2.52, 0.44 2.29, 0.56 2.08 C0.68 1.87, 0.82 1.67, 0.98 1.49 C1.13 1.3, 1.3 1.13, 1.49 0.98 C1.67 0.82, 1.87 0.68, 2.08 0.56 C2.29 0.44, 2.52 0.33, 2.74 0.25 C2.97 0.17, 3.21 0.11, 3.44 0.06 C3.68 0.02, 3.93 0, 4.17 0 C4.41 0, 4.65 0.02, 4.89 0.06 C5.13 0.11, 5.37 0.17, 5.59 0.25 C5.82 0.33, 6.04 0.44, 6.25 0.56 C6.46 0.68, 6.66 0.82, 6.85 0.98 C7.03 1.13, 7.2 1.3, 7.36 1.49 C7.52 1.67, 7.66 1.87, 7.78 2.08 C7.9 2.29, 8 2.52, 8.08 2.74 C8.17 2.97, 8.23 3.21, 8.27 3.44 C8.31 3.68, 8.32 4.05, 8.33 4.17 C8.35 4.29, 8.35 4.05, 8.33 4.17" stroke="none" stroke-width="0" fill="#fa5252"></path><path d="M8.33 4.17 C8.33 4.41, 8.31 4.65, 8.27 4.89 C8.23 5.13, 8.17 5.37, 8.08 5.59 C8 5.82, 7.9 6.04, 7.78 6.25 C7.66 6.46, 7.52 6.66, 7.36 6.85 C7.2 7.03, 7.03 7.2, 6.85 7.36 C6.66 7.52, 6.46 7.66, 6.25 7.78 C6.04 7.9, 5.82 8, 5.59 8.08 C5.37 8.17, 5.13 8.23, 4.89 8.27 C4.65 8.31, 4.41 8.33, 4.17 8.33 C3.93 8.33, 3.68 8.31, 3.44 8.27 C3.21 8.23, 2.97 8.17, 2.74 8.08 C2.52 8, 2.29 7.9, 2.08 7.78 C1.87 7.66, 1.67 7.52, 1.49 7.36 C1.3 7.2, 1.13 7.03, 0.98 6.85 C0.82 6.66, 0.68 6.46, 0.56 6.25 C0.44 6.04, 0.33 5.82, 0.25 5.59 C0.17 5.37, 0.11 5.13, 0.06 4.89 C0.02 4.65, 0 4.41, 0 4.17 C0 3.93, 0.02 3.68, 0.06 3.44 C0.11 3.21, 0.17 2.97, 0.25 2.74 C0.33 2.52, 0.44 2.29, 0.56 2.08 C0.68 1.87, 0.82 1.67, 0.98 1.49 C1.13 1.3, 1.3 1.13, 1.49 0.98 C1.67 0.82, 1.87 0.68, 2.08 0.56 C2.29 0.44, 2.52 0.33, 2.74 0.25 C2.97 0.17, 3.21 0.11, 3.44 0.06 C3.68 0.02, 3.93 0, 4.17 0 C4.41 0, 4.65 0.02, 4.89 0.06 C5.13 0.11, 5.37 0.17, 5.59 0.25 C5.82 0.33, 6.04 0.44, 6.25 0.56 C6.46 0.68, 6.66 0.82, 6.85 0.98 C7.03 1.13, 7.2 1.3, 7.36 1.49 C7.52 1.67, 7.66 1.87, 7.78 2.08 C7.9 2.29, 8 2.52, 8.08 2.74 C8.17 2.97, 8.23 3.21, 8.27 3.44 C8.31 3.68, 8.32 4.05, 8.33 4.17 C8.35 4.29, 8.35 4.05, 8.33 4.17" stroke="#000000" stroke-width="1" fill="none"></path></g><g stroke-linecap="round" transform="translate(35.82759179268248 286.30176908230465) rotate(0 4.16748750744361 4.167487507443639)"><path d="M8.33 4.17 C8.33 4.41, 8.31 4.65, 8.27 4.89 C8.23 5.13, 8.17 5.37, 8.08 5.59 C8 5.82, 7.9 6.04, 7.78 6.25 C7.66 6.46, 7.52 6.66, 7.36 6.85 C7.2 7.03, 7.03 7.2, 6.85 7.36 C6.66 7.52, 6.46 7.66, 6.25 7.78 C6.04 7.9, 5.82 8, 5.59 8.08 C5.37 8.17, 5.13 8.23, 4.89 8.27 C4.65 8.31, 4.41 8.33, 4.17 8.33 C3.93 8.33, 3.68 8.31, 3.44 8.27 C3.21 8.23, 2.97 8.17, 2.74 8.08 C2.52 8, 2.29 7.9, 2.08 7.78 C1.87 7.66, 1.67 7.52, 1.49 7.36 C1.3 7.2, 1.13 7.03, 0.98 6.85 C0.82 6.66, 0.68 6.46, 0.56 6.25 C0.44 6.04, 0.33 5.82, 0.25 5.59 C0.17 5.37, 0.11 5.13, 0.06 4.89 C0.02 4.65, 0 4.41, 0 4.17 C0 3.93, 0.02 3.68, 0.06 3.44 C0.11 3.21, 0.17 2.97, 0.25 2.74 C0.33 2.52, 0.44 2.29, 0.56 2.08 C0.68 1.87, 0.82 1.67, 0.98 1.49 C1.13 1.3, 1.3 1.13, 1.49 0.98 C1.67 0.82, 1.87 0.68, 2.08 0.56 C2.29 0.44, 2.52 0.33, 2.74 0.25 C2.97 0.17, 3.21 0.11, 3.44 0.06 C3.68 0.02, 3.93 0, 4.17 0 C4.41 0, 4.65 0.02, 4.89 0.06 C5.13 0.11, 5.37 0.17, 5.59 0.25 C5.82 0.33, 6.04 0.44, 6.25 0.56 C6.46 0.68, 6.66 0.82, 6.85 0.98 C7.03 1.13, 7.2 1.3, 7.36 1.49 C7.52 1.67, 7.66 1.87, 7.78 2.08 C7.9 2.29, 8 2.52, 8.08 2.74 C8.17 2.97, 8.23 3.21, 8.27 3.44 C8.31 3.68, 8.32 4.05, 8.33 4.17 C8.35 4.29, 8.35 4.05, 8.33 4.17" stroke="none" stroke-width="0" fill="#fab005"></path><path d="M8.33 4.17 C8.33 4.41, 8.31 4.65, 8.27 4.89 C8.23 5.13, 8.17 5.37, 8.08 5.59 C8 5.82, 7.9 6.04, 7.78 6.25 C7.66 6.46, 7.52 6.66, 7.36 6.85 C7.2 7.03, 7.03 7.2, 6.85 7.36 C6.66 7.52, 6.46 7.66, 6.25 7.78 C6.04 7.9, 5.82 8, 5.59 8.08 C5.37 8.17, 5.13 8.23, 4.89 8.27 C4.65 8.31, 4.41 8.33, 4.17 8.33 C3.93 8.33, 3.68 8.31, 3.44 8.27 C3.21 8.23, 2.97 8.17, 2.74 8.08 C2.52 8, 2.29 7.9, 2.08 7.78 C1.87 7.66, 1.67 7.52, 1.49 7.36 C1.3 7.2, 1.13 7.03, 0.98 6.85 C0.82 6.66, 0.68 6.46, 0.56 6.25 C0.44 6.04, 0.33 5.82, 0.25 5.59 C0.17 5.37, 0.11 5.13, 0.06 4.89 C0.02 4.65, 0 4.41, 0 4.17 C0 3.93, 0.02 3.68, 0.06 3.44 C0.11 3.21, 0.17 2.97, 0.25 2.74 C0.33 2.52, 0.44 2.29, 0.56 2.08 C0.68 1.87, 0.82 1.67, 0.98 1.49 C1.13 1.3, 1.3 1.13, 1.49 0.98 C1.67 0.82, 1.87 0.68, 2.08 0.56 C2.29 0.44, 2.52 0.33, 2.74 0.25 C2.97 0.17, 3.21 0.11, 3.44 0.06 C3.68 0.02, 3.93 0, 4.17 0 C4.41 0, 4.65 0.02, 4.89 0.06 C5.13 0.11, 5.37 0.17, 5.59 0.25 C5.82 0.33, 6.04 0.44, 6.25 0.56 C6.46 0.68, 6.66 0.82, 6.85 0.98 C7.03 1.13, 7.2 1.3, 7.36 1.49 C7.52 1.67, 7.66 1.87, 7.78 2.08 C7.9 2.29, 8 2.52, 8.08 2.74 C8.17 2.97, 8.23 3.21, 8.27 3.44 C8.31 3.68, 8.32 4.05, 8.33 4.17 C8.35 4.29, 8.35 4.05, 8.33 4.17" stroke="#000000" stroke-width="1" fill="none"></path></g><g stroke-linecap="round" transform="translate(53.679829976357496 287.05282561204524) rotate(0 4.16748750744361 4.167487507443639)"><path d="M8.33 4.17 C8.33 4.41, 8.31 4.65, 8.27 4.89 C8.23 5.13, 8.17 5.37, 8.08 5.59 C8 5.82, 7.9 6.04, 7.78 6.25 C7.66 6.46, 7.52 6.66, 7.36 6.85 C7.2 7.03, 7.03 7.2, 6.85 7.36 C6.66 7.52, 6.46 7.66, 6.25 7.78 C6.04 7.9, 5.82 8, 5.59 8.08 C5.37 8.17, 5.13 8.23, 4.89 8.27 C4.65 8.31, 4.41 8.33, 4.17 8.33 C3.93 8.33, 3.68 8.31, 3.44 8.27 C3.21 8.23, 2.97 8.17, 2.74 8.08 C2.52 8, 2.29 7.9, 2.08 7.78 C1.87 7.66, 1.67 7.52, 1.49 7.36 C1.3 7.2, 1.13 7.03, 0.98 6.85 C0.82 6.66, 0.68 6.46, 0.56 6.25 C0.44 6.04, 0.33 5.82, 0.25 5.59 C0.17 5.37, 0.11 5.13, 0.06 4.89 C0.02 4.65, 0 4.41, 0 4.17 C0 3.93, 0.02 3.68, 0.06 3.44 C0.11 3.21, 0.17 2.97, 0.25 2.74 C0.33 2.52, 0.44 2.29, 0.56 2.08 C0.68 1.87, 0.82 1.67, 0.98 1.49 C1.13 1.3, 1.3 1.13, 1.49 0.98 C1.67 0.82, 1.87 0.68, 2.08 0.56 C2.29 0.44, 2.52 0.33, 2.74 0.25 C2.97 0.17, 3.21 0.11, 3.44 0.06 C3.68 0.02, 3.93 0, 4.17 0 C4.41 0, 4.65 0.02, 4.89 0.06 C5.13 0.11, 5.37 0.17, 5.59 0.25 C5.82 0.33, 6.04 0.44, 6.25 0.56 C6.46 0.68, 6.66 0.82, 6.85 0.98 C7.03 1.13, 7.2 1.3, 7.36 1.49 C7.52 1.67, 7.66 1.87, 7.78 2.08 C7.9 2.29, 8 2.52, 8.08 2.74 C8.17 2.97, 8.23 3.21, 8.27 3.44 C8.31 3.68, 8.32 4.05, 8.33 4.17 C8.35 4.29, 8.35 4.05, 8.33 4.17" stroke="none" stroke-width="0" fill="#40c057"></path><path d="M8.33 4.17 C8.33 4.41, 8.31 4.65, 8.27 4.89 C8.23 5.13, 8.17 5.37, 8.08 5.59 C8 5.82, 7.9 6.04, 7.78 6.25 C7.66 6.46, 7.52 6.66, 7.36 6.85 C7.2 7.03, 7.03 7.2, 6.85 7.36 C6.66 7.52, 6.46 7.66, 6.25 7.78 C6.04 7.9, 5.82 8, 5.59 8.08 C5.37 8.17, 5.13 8.23, 4.89 8.27 C4.65 8.31, 4.41 8.33, 4.17 8.33 C3.93 8.33, 3.68 8.31, 3.44 8.27 C3.21 8.23, 2.97 8.17, 2.74 8.08 C2.52 8, 2.29 7.9, 2.08 7.78 C1.87 7.66, 1.67 7.52, 1.49 7.36 C1.3 7.2, 1.13 7.03, 0.98 6.85 C0.82 6.66, 0.68 6.46, 0.56 6.25 C0.44 6.04, 0.33 5.82, 0.25 5.59 C0.17 5.37, 0.11 5.13, 0.06 4.89 C0.02 4.65, 0 4.41, 0 4.17 C0 3.93, 0.02 3.68, 0.06 3.44 C0.11 3.21, 0.17 2.97, 0.25 2.74 C0.33 2.52, 0.44 2.29, 0.56 2.08 C0.68 1.87, 0.82 1.67, 0.98 1.49 C1.13 1.3, 1.3 1.13, 1.49 0.98 C1.67 0.82, 1.87 0.68, 2.08 0.56 C2.29 0.44, 2.52 0.33, 2.74 0.25 C2.97 0.17, 3.21 0.11, 3.44 0.06 C3.68 0.02, 3.93 0, 4.17 0 C4.41 0, 4.65 0.02, 4.89 0.06 C5.13 0.11, 5.37 0.17, 5.59 0.25 C5.82 0.33, 6.04 0.44, 6.25 0.56 C6.46 0.68, 6.66 0.82, 6.85 0.98 C7.03 1.13, 7.2 1.3, 7.36 1.49 C7.52 1.67, 7.66 1.87, 7.78 2.08 C7.9 2.29, 8 2.52, 8.08 2.74 C8.17 2.97, 8.23 3.21, 8.27 3.44 C8.31 3.68, 8.32 4.05, 8.33 4.17 C8.35 4.29, 8.35 4.05, 8.33 4.17" stroke="#000000" stroke-width="1" fill="none"></path></g><g stroke-opacity="0.9" fill-opacity="0.9" stroke-linecap="round" transform="translate(80.38642829351329 313.8015955793802) rotate(0 35.593278455265306 35.593278455265306)"><path d="M50.43 3.51 C56.76 5.61, 64.18 11.36, 67.48 17.48 C70.79 23.61, 71.11 33.35, 70.27 40.25 C69.43 47.15, 66.98 53.71, 62.44 58.89 C57.91 64.08, 50.02 69.68, 43.08 71.34 C36.14 72.99, 27.24 71.86, 20.8 68.82 C14.36 65.77, 8.03 59.29, 4.44 53.06 C0.84 46.84, -1.68 38.23, -0.75 31.47 C0.18 24.71, 5.25 17.73, 10.01 12.52 C14.76 7.32, 20.4 1.55, 27.77 0.22 C35.14 -1.11, 49.48 3.25, 54.23 4.55 C58.98 5.86, 56.59 7.56, 56.27 8.06 M27.47 1.67 C33.95 -0.5, 42.84 0.38, 49.02 2.93 C55.2 5.47, 60.67 10.93, 64.56 16.92 C68.44 22.9, 72.56 32.02, 72.33 38.82 C72.09 45.62, 67.77 52.39, 63.14 57.73 C58.52 63.08, 51.07 69.21, 44.56 70.91 C38.05 72.61, 30.54 70.48, 24.06 67.92 C17.59 65.36, 9.51 61.41, 5.73 55.58 C1.95 49.74, 0.77 40.11, 1.37 32.9 C1.98 25.68, 5.4 17.67, 9.37 12.27 C13.34 6.88, 22.4 2.46, 25.19 0.51 C27.98 -1.44, 25.98 -0.29, 26.1 0.56" stroke="none" stroke-width="0" fill="#04aaf7"></path><path d="M45.41 0.86 C52.04 2.35, 59.52 8.72, 63.76 14.08 C67.99 19.43, 70.55 26.05, 70.82 32.99 C71.09 39.93, 69.09 49.63, 65.38 55.71 C61.67 61.79, 55.06 67.21, 48.56 69.49 C42.06 71.77, 33.02 71.33, 26.39 69.38 C19.76 67.43, 13.22 62.98, 8.77 57.78 C4.32 52.59, 0.15 45, -0.31 38.21 C-0.77 31.42, 2 23.06, 5.99 17.05 C9.98 11.04, 16.47 4.48, 23.64 2.14 C30.8 -0.2, 43.78 2.29, 48.96 3 C54.14 3.7, 54.97 5.9, 54.72 6.36 M38.92 -0.89 C45.75 -0.56, 54.31 4.76, 59.72 9.34 C65.13 13.91, 69.84 19.89, 71.38 26.55 C72.92 33.22, 71.78 42.57, 68.97 49.32 C66.17 56.08, 60.51 63.38, 54.53 67.09 C48.55 70.79, 40.03 72.53, 33.1 71.55 C26.17 70.58, 18.17 65.77, 12.98 61.23 C7.79 56.69, 3.5 50.93, 1.94 44.34 C0.38 37.75, 0.91 28.4, 3.62 21.69 C6.34 14.99, 12.3 7.84, 18.21 4.12 C24.12 0.41, 35.46 -0.1, 39.07 -0.6 C42.69 -1.1, 40.1 0.58, 39.9 1.12" stroke="#000000" stroke-width="1" fill="none"></path></g><g stroke-linecap="round"><g transform="translate(125.50796687362197 340.8369487125601) rotate(0 -5.777143002574718 10.797677638345021)" fill-rule="evenodd"><path d="M0 0 L-3.05 -0.69 L-12.62 -10.45 L-16.24 -10.16 L-18.93 -7.24 L-20.5 -1.9 L-21.02 3.95 L-18.78 11.23 L-29.04 14.81 L-29.99 19.02 L-28.67 22.73 L-25.01 23.39 L-20.63 22.25 L-16.14 16.11 L-14.49 15.79 L-12.46 18.17 L-6.03 29.77 L-2.48 32.29 L-1.18 32.07 L-0.69 30.28 L-6.29 8 L-5.01 6.22 L-2.53 6.07 L2.31 7.24 L5.27 9.78 L10.35 10.48 L15.39 9.78 L18.01 5.37 L18 1.06 L9.17 2.29 L7.03 1.85 L6.81 -0.44 L9.14 -9.6 L7.05 -10.43 L4.12 -8.91 L1.52 -5.28 L-0.4 -1.54 L0 0" stroke="none" stroke-width="0" fill="#40c057" fill-rule="evenodd"></path><path d="M0 0 C-0.51 -0.12, -0.95 1.05, -3.05 -0.69 C-5.15 -2.43, -9.97 -9.36, -12.62 -10.45 C-15.26 -11.54, -17.53 -9.65, -18.93 -7.24 C-20.33 -4.84, -21.04 0.88, -21.02 3.95 C-20.99 7.03, -17.44 9.42, -18.78 11.23 C-20.11 13.04, -27.39 12.89, -29.04 14.81 C-30.68 16.72, -30.07 21.49, -28.67 22.73 C-27.27 23.97, -22.99 23.4, -20.63 22.25 C-18.27 21.09, -16.92 14.54, -14.49 15.79 C-12.06 17.05, -8.33 27.36, -6.03 29.77 C-3.73 32.19, -0.65 33.91, -0.69 30.28 C-0.74 26.65, -6.79 11.84, -6.29 8 C-5.79 4.16, 0.38 6.95, 2.31 7.24 C4.24 7.54, 3.09 9.36, 5.27 9.78 C7.45 10.2, 13.27 11.23, 15.39 9.78 C17.51 8.32, 19.39 2.38, 18 1.06 C16.61 -0.26, 8.51 3.63, 7.03 1.85 C5.56 0.07, 9.63 -7.81, 9.14 -9.6 C8.66 -11.39, 5.71 -10.25, 4.12 -8.91 C2.53 -7.56, 0.29 -3.02, -0.4 -1.54 C-1.08 -0.05, -0.07 -0.26, 0 0 M0 0 C-0.51 -0.12, -0.95 1.05, -3.05 -0.69 C-5.15 -2.43, -9.97 -9.36, -12.62 -10.45 C-15.26 -11.54, -17.53 -9.65, -18.93 -7.24 C-20.33 -4.84, -21.04 0.88, -21.02 3.95 C-20.99 7.03, -17.44 9.42, -18.78 11.23 C-20.11 13.04, -27.39 12.89, -29.04 14.81 C-30.68 16.72, -30.07 21.49, -28.67 22.73 C-27.27 23.97, -22.99 23.4, -20.63 22.25 C-18.27 21.09, -16.92 14.54, -14.49 15.79 C-12.06 17.05, -8.33 27.36, -6.03 29.77 C-3.73 32.19, -0.65 33.91, -0.69 30.28 C-0.74 26.65, -6.79 11.84, -6.29 8 C-5.79 4.16, 0.38 6.95, 2.31 7.24 C4.24 7.54, 3.09 9.36, 5.27 9.78 C7.45 10.2, 13.27 11.23, 15.39 9.78 C17.51 8.32, 19.39 2.38, 18 1.06 C16.61 -0.26, 8.51 3.63, 7.03 1.85 C5.56 0.07, 9.63 -7.81, 9.14 -9.6 C8.66 -11.39, 5.71 -10.25, 4.12 -8.91 C2.53 -7.56, 0.29 -3.02, -0.4 -1.54 C-1.08 -0.05, -0.07 -0.26, 0 0" stroke="#087f5b" stroke-width="1" fill="none"></path></g></g><g stroke-linecap="round"><g stroke-opacity="0.9" fill-opacity="0.9" transform="translate(81.82665878067075 347.6855092900305) rotate(0 35.72026846546484 -0.49968643107411026)"><path d="M0.64 -0.25 C12.32 -0.27, 58.03 0.45, 69.54 0.57 M-0.49 -1.42 C11.64 -1.86, 60.4 -1.22, 71.93 -1.25" stroke="#000000" stroke-width="1" fill="none"></path></g></g><g stroke-linecap="round"><g stroke-opacity="0.9" fill-opacity="0.9" transform="translate(90.64176218691568 323.0137199765944) rotate(0 24.427443381367766 4.378439818246704)"><path d="M0 0 C0.21 0.63, 0.15 2.63, 1.29 3.79 C2.43 4.96, 4.68 6.12, 6.84 6.98 C8.99 7.83, 11.06 8.55, 14.22 8.9 C17.38 9.25, 21.62 9.25, 25.8 9.08 C29.97 8.9, 35.73 8.8, 39.3 7.85 C42.86 6.9, 45.59 4.77, 47.19 3.39 C48.78 2.01, 48.58 0.2, 48.85 -0.44 M0 0 C0.21 0.63, 0.15 2.63, 1.29 3.79 C2.43 4.96, 4.68 6.12, 6.84 6.98 C8.99 7.83, 11.06 8.55, 14.22 8.9 C17.38 9.25, 21.62 9.25, 25.8 9.08 C29.97 8.9, 35.73 8.8, 39.3 7.85 C42.86 6.9, 45.59 4.77, 47.19 3.39 C48.78 2.01, 48.58 0.2, 48.85 -0.44" stroke="#000000" stroke-width="1" fill="none"></path></g></g><g stroke-opacity="0.9" fill-opacity="0.9" stroke-linecap="round" transform="translate(104.0956842482442 311.4978255055654) rotate(0 12.937857384812986 37.344690526302884)"><path d="M10.13 -0.19 C12.62 -2.14, 16.68 1.16, 19.21 5.29 C21.75 9.41, 24.33 17.29, 25.35 24.56 C26.36 31.83, 26.11 41.47, 25.31 48.92 C24.51 56.37, 22.99 64.87, 20.53 69.24 C18.07 73.61, 13.43 76.19, 10.57 75.12 C7.71 74.05, 5 69.03, 3.35 62.82 C1.7 56.6, 0.9 46, 0.68 37.85 C0.45 29.69, -0.07 20.12, 1.98 13.87 C4.04 7.63, 11.12 2.6, 13.01 0.37 C14.9 -1.86, 13.39 -0.04, 13.32 0.48 M10.45 1.79 C13.11 -0.59, 17.12 -0.73, 19.6 2.57 C22.08 5.88, 24.26 14.02, 25.33 21.64 C26.41 29.26, 26.77 40.45, 26.03 48.28 C25.29 56.11, 23.17 64.44, 20.9 68.61 C18.64 72.78, 15.15 74.03, 12.46 73.31 C9.77 72.59, 6.69 69.79, 4.75 64.29 C2.81 58.8, 1.06 48.59, 0.83 40.33 C0.59 32.06, 1.8 21.37, 3.33 14.73 C4.87 8.08, 8.77 2.55, 10.05 0.46 C11.32 -1.63, 11.1 1.64, 11 2.19" stroke="#000000" stroke-width="1" fill="none"></path></g><g stroke-linecap="round"><g stroke-opacity="0.9" fill-opacity="0.9" transform="translate(93.16785902164213 375.8986356768555) rotate(0 24.427443381367766 -4.520162164605608)"><path d="M0 0 C1.14 -1.2, 4.47 -5.67, 6.84 -7.2 C9.21 -8.73, 11.06 -8.83, 14.22 -9.19 C17.38 -9.55, 21.62 -9.55, 25.8 -9.37 C29.97 -9.19, 35.73 -9.09, 39.3 -8.11 C42.86 -7.13, 45.59 -4.92, 47.19 -3.5 C48.78 -2.07, 48.58 -0.21, 48.85 0.45 M0 0 C1.14 -1.2, 4.47 -5.67, 6.84 -7.2 C9.21 -8.73, 11.06 -8.83, 14.22 -9.19 C17.38 -9.55, 21.62 -9.55, 25.8 -9.37 C29.97 -9.19, 35.73 -9.09, 39.3 -8.11 C42.86 -7.13, 45.59 -4.92, 47.19 -3.5 C48.78 -2.07, 48.58 -0.21, 48.85 0.45" stroke="#000000" stroke-width="1" fill="none"></path></g></g><g transform="translate(158.9029431865829 312.20238095238096) rotate(0 27.5 13)"><text x="0" y="18" font-family="Virgil, Segoe UI Emoji" font-size="20px" fill="#000000" text-anchor="start" style="white-space: pre;" direction="ltr">Client</text></g><g transform="translate(933.6529431865827 10) rotate(0 205.82692307692298 38.5)"><text x="0" y="54" font-family="Virgil, Segoe UI Emoji" font-size="59.230769230769226px" fill="#000000" text-anchor="start" style="white-space: pre;" direction="ltr">System Design</text></g><g stroke-linecap="round"><g transform="translate(1080.639435404882 96.63505963011187) rotate(89.99999999999994 94.15105491924965 234.31127410389348)" fill-rule="evenodd"><path d="M8.14 -18.1 C8.14 -18.1, 8.14 -18.1, 8.14 -18.1 M8.14 -18.1 C8.14 -18.1, 8.14 -18.1, 8.14 -18.1 M8.3 -8.86 C11.11 -12.84, 12.04 -18.43, 20.23 -26.34 M7.44 -9.3 C11.62 -16.01, 16.5 -21.9, 21.39 -27.68 M3.51 0.81 C8.99 -4.75, 16.09 -13.95, 25.64 -25.95 M2.03 2.19 C6.48 -4.79, 12.84 -10.48, 26.7 -26.56 M1.82 6.62 C8.27 -2.64, 18.52 -12.12, 33.99 -30.81 M1.09 7.22 C9.02 -1.33, 16.15 -8.44, 34.1 -30.53 M1.64 12.55 C13.17 1.18, 25.11 -10.39, 45.03 -36.45 M1.16 14.1 C11.23 2.31, 21.77 -10.06, 46.24 -36.71 M3.06 21.43 C19.05 -0.82, 34.04 -16.69, 54.44 -38.39 M2.49 19.04 C18.09 0.81, 35.17 -19.48, 53.65 -38.07 M0.28 24.52 C15.84 8.76, 32.57 -8.31, 58.55 -41.37 M1.91 26.35 C24.5 -0.51, 45.49 -25.6, 59.9 -40.11 M0.71 33.21 C21.58 10.22, 43.57 -17.7, 67.62 -40.9 M2.32 32.64 C19.1 13.31, 36.28 -7.12, 67.33 -41.82 M1.95 39.35 C26.52 10.2, 46.56 -12.54, 74.24 -45.1 M2.17 37.74 C21.19 15.76, 41.47 -6.7, 71.89 -43.01 M2.17 43.13 C29.91 12.64, 56.15 -18.44, 76.21 -45.15 M2.26 43.16 C18.86 25.96, 34 8.22, 78.43 -44.15 M2.55 48.97 C28.67 18.74, 56.76 -11.89, 81.71 -45.39 M2.59 50.53 C24.09 23.79, 46.39 -2.69, 84.34 -43.9 M0.25 57.89 C23.04 34.52, 42.38 10.34, 87.63 -43.91 M1.78 56.5 C23.72 33.54, 42.73 10.89, 88.29 -45.2 M3.49 63.14 C27.05 35.23, 50.51 10.59, 93.97 -40.71 M2.61 62.97 C30.75 29.41, 59.32 -4.13, 93.12 -42.8 M0.56 70.55 C24.44 44.69, 44.19 18.24, 99.47 -40.34 M1.47 68.01 C29.21 36.69, 58.17 6.57, 97.82 -41.38 M2.22 74.43 C31.22 37.93, 65.55 0.69, 104.09 -42.98 M1.14 74.27 C29.47 42.86, 59.68 8.01, 102.53 -42.04 M0.11 81.44 C34.77 44.82, 64.52 7.19, 106.68 -40.83 M1.69 81.49 C42.87 34.69, 83.2 -12.46, 106.59 -40.16 M3.68 86.97 C31.56 52.34, 62.04 15.9, 110.64 -42.03 M1.85 87.35 C33.49 52.14, 63.05 17.17, 112.68 -40.7 M3.37 94.74 C34.06 52.95, 67.63 15.96, 116.37 -40.45 M2.6 93.74 C26.82 64.07, 52.93 35.26, 117.68 -39.52 M-0.44 101.2 C38.1 58.17, 71.44 18.67, 120.27 -41.14 M0.54 99.62 C40.44 52.85, 80.94 6.78, 122.11 -40.16 M0.93 103.4 C39.93 57.96, 81.31 12.06, 125.77 -37.18 M2.78 105.51 C44.53 55.99, 87.1 6.05, 125.64 -38.2 M2.96 110.88 C35.6 69.86, 73.39 28.34, 129.75 -38.28 M1.75 111.93 C36.61 70.48, 71.27 28.82, 129.86 -37.29 M0.27 118.63 C52.84 62.86, 99.26 4.29, 137.34 -35.83 M1.89 117.11 C54.21 57.8, 108.55 -4.49, 135.78 -37.44 M0.61 123.55 C50.34 65.77, 102.41 10.74, 141.14 -34.51 M0.95 123.15 C44.28 77.1, 85.6 29.18, 140.61 -36.7 M-0.02 131.12 C45.73 79.17, 89.45 28.71, 144.38 -35.51 M1.6 129.1 C41.31 83.48, 80.84 38.68, 144.8 -35.4 M2.6 133.9 C33.06 102.54, 61.67 65.62, 147.37 -33.01 M2.53 135.04 C54.62 73.72, 107.71 11.56, 149.67 -33.01 M1.95 143.31 C44.99 91.49, 88.25 41.17, 152.03 -30.83 M1.11 141.17 C57.81 79.44, 112.05 16.96, 153.64 -32.11 M2.9 147.89 C45.02 94.64, 90.58 45.57, 158.82 -30.45 M1.92 147.87 C36.66 108.87, 69.76 69.89, 158.14 -31.35 M2.97 154.57 C53.01 91.21, 108.91 30.45, 159.83 -29.01 M1.88 154.68 C46.86 99.72, 94.21 45.58, 160.8 -29.73 M0.88 161.75 C38.75 115.86, 77.44 71.46, 164.41 -27.02 M0.86 159.49 C60.72 92.7, 119.04 24.66, 164.85 -27.02 M1.29 165.61 C61.62 97.79, 119.36 30.93, 166.83 -23.92 M1.79 166.57 C69.14 89.3, 135.41 13.6, 167.15 -25.48 M0.07 173.86 C50.29 117.55, 101.13 62.02, 173.05 -23.74 M1.26 173.04 C46.59 121.13, 90.98 69.1, 172.03 -23.69 M2.15 179.06 C61.36 110.85, 122.74 41.92, 174.32 -22.8 M1.27 178.55 C47.88 126.25, 94.51 74.03, 175.04 -21.62 M0.71 184.82 C41.45 137.36, 82.88 89.65, 178.41 -17.27 M1.42 184.24 C72.2 103.56, 142.1 23.25, 178.44 -17.96 M0.93 190.12 C62.71 121.06, 122.76 51.91, 181.71 -15.1 M0.87 190.52 C63.67 116.29, 127.25 43.27, 181.28 -15.34 M2.62 197.92 C43.59 145.89, 85.12 97.82, 183.09 -13.43 M1.89 196.61 C70.74 119.82, 138.16 41.57, 183.95 -13.17 M1.76 203.82 C55.17 139.08, 110.35 76.77, 185.66 -7.9 M2.16 202.08 C40.9 160.18, 78.63 115.92, 185.72 -8.52 M1.5 210.61 C50.34 155.02, 96.66 100.03, 188.12 -4.96 M1.61 209.41 C72.17 126.71, 144.68 43.9, 187.31 -4.97 M188.33 -5.89 C188.33 -5.89, 188.33 -5.89, 188.33 -5.89 M188.33 -5.89 C188.33 -5.89, 188.33 -5.89, 188.33 -5.89 M1.07 214.48 C45.54 164.75, 86.43 115.08, 187.41 0.02 M2.36 214.62 C40.99 167.93, 81.71 120.89, 188.06 -0.3 M2.53 222.45 C45.38 170.96, 87.45 121.54, 189.36 5.44 M1.88 221.02 C55.94 159.94, 110.07 97.77, 188.33 6.01 M1.78 228.32 C50.71 173.05, 99.27 116.39, 187.38 13.86 M2.25 226.97 C75.48 143.15, 148.55 59.65, 187.82 12.15 M2.36 232.11 C51.53 172.79, 101.61 114.96, 188.73 18.62 M1.18 232.98 C66.74 160.51, 132.51 86.48, 188.29 17.54 M1.42 239.2 C46.73 187.51, 91.1 138.43, 186.82 24.86 M0.75 240.25 C43.35 191.12, 86.13 142.38, 188.4 25.04 M3.18 245.52 C44.59 197.49, 83.49 151.01, 187.33 30.34 M1.52 245.44 C43.48 195.88, 84.26 149.63, 188.87 29.72 M2.1 253.23 C42.42 201.21, 88.38 150.71, 188.09 35.7 M1.16 252.2 C42.57 207.16, 80.47 163.46, 187.9 37.21 M2.91 257.57 C73.71 174.76, 147.24 93.18, 186.96 43.49 M1.2 256.95 C41.12 213.21, 79.3 169.2, 187.89 43.37 M0.48 263.23 C56.81 203.81, 107.62 142.96, 189.28 49.49 M2.36 264.11 C72.48 180.8, 145.21 97.1, 187.99 48.82 M-0.11 271.18 C75.17 186.54, 146.47 103.69, 187.93 55.33 M0.72 270.4 C50.99 212.01, 103.33 153.28, 188.81 55.31 M2.57 276.13 C42.85 227.09, 83.44 181.34, 189.52 61.41 M1.46 276.3 C73.84 191.21, 148.3 106.33, 188.59 60.56 M1.62 282.13 C56.68 216.83, 113.86 153.29, 188.13 68.08 M0.87 282.42 C50.24 226.73, 97.84 171.1, 189.12 67.46 M1.82 286.39 C42.42 238.8, 84.12 191.32, 188.41 74.67 M2.2 287.37 C44.14 240.12, 86.07 191.61, 188.86 72.89 M2.57 295.69 C58.07 228.66, 116.15 160.16, 188.74 79.87 M1.84 293.95 C50.88 235.13, 101.9 176.9, 189.11 79.22 M2.72 301.03 C56.66 237.13, 113.03 171.32, 188.61 85.31 M0.69 300.99 C45.77 245.82, 92.15 193.13, 188.19 86.09 M1.98 305.45 C47.06 253.17, 92.11 199.84, 187.46 91.48 M1.24 305.73 C56.41 245.19, 110.63 183.56, 188.12 91.34 M2.21 312.33 C73.4 232.14, 144.59 147.97, 188.83 98.92 M1.69 312.32 C40.79 267.38, 79.24 222.61, 188.44 97.18 M2.57 319.07 C42.76 271.57, 82.37 224.44, 187 104.17 M1.97 319.81 C68.34 240.13, 137.41 161.5, 188.47 103.56 M0.88 323.61 C41.68 277.79, 84.17 231.28, 189.57 109.35 M0.95 324.6 C45.5 274.77, 88.18 225.85, 188.89 109.03 M1.02 330.98 C49.54 277.59, 94.57 223.34, 188.54 116.56 M1.11 330.42 C44.2 281.88, 88 231.17, 188.97 116.19 M2.63 337.1 C58.81 268.87, 117.13 200.32, 189.37 120.76 M1.59 337.11 C74.44 254.29, 147.36 170.42, 188.67 122.01 M2.22 342.11 C74.9 258.57, 149.57 173.27, 187.87 129.22 M1.21 343.75 C53.17 283.14, 107.74 221.56, 188.59 128.55 M1.12 349.38 C68.17 271.31, 134.83 192.7, 187.19 133.17 M0.57 349.63 C63.4 276.12, 127.09 202.11, 187.59 134.79 M0.69 353.82 C42.5 308.01, 85.26 258.82, 190.09 138.61 M2.27 355.11 C73.95 272.45, 147.4 187.3, 189.03 140.53 M0.7 360.52 C45.48 310.94, 89.78 260.04, 188.11 145.52 M1.95 361.01 C63.75 293.17, 124.03 222.69, 188.8 145.8 M1.13 368.63 C67.35 290.14, 134.01 213.98, 187.74 152.96 M1.1 367.98 C55.58 301.75, 110.99 239.29, 188.07 151.77 M0.26 372.51 C69.06 294.44, 140.58 211.95, 187.21 157.18 M0.86 373.65 C66.15 300.53, 129.15 227.41, 188.74 157.82 M2.6 378.91 C61.07 311.44, 119.58 242.69, 187.45 165.8 M1.25 379.54 C40.75 337.02, 79.08 292.61, 187.95 165.52 M1.97 386.24 C39.54 341.3, 78.63 298.29, 187.38 170.97 M1.24 385.95 C68.36 308.32, 136.06 231.86, 188.92 170.38 M1.16 391.08 C57.56 330.03, 110.22 268.28, 188.29 177.12 M2.03 392.82 C39.69 346.59, 79.6 302.14, 188.94 176.46 M1.51 396.24 C62.12 323.99, 127.74 251.74, 189.59 181.79 M1.57 397.63 C61.1 326.17, 122.25 256.43, 189.14 182.04 M1.09 402.89 C65.74 332.89, 127.99 258.57, 189.96 188.89 M2.12 404.59 C50.59 348.89, 99.21 292.07, 188.39 188.92 M2.55 409.55 C66.05 338.02, 131.09 261.51, 189.15 195.6 M1.77 410.45 C70.25 332.9, 137.84 254.49, 188.41 195.69 M2.36 415.55 C41.36 369.2, 80.02 326.44, 189.37 201.94 M2.21 415.94 C75.51 330.61, 150.17 246.18, 187.95 201.71 M1.23 421.54 C74.94 337.81, 150.95 249.85, 187.49 208.16 M1.3 422.17 C68.17 344.93, 134.47 268.35, 189.01 207.96 M2.98 428.43 C63.93 357.2, 125.55 285.25, 189.06 213.77 M1.31 428.5 C59.23 362.25, 116.3 295.87, 188.36 213.43 M0.39 435.59 C43.84 385.42, 85.49 335.86, 188.17 218.7 M1.26 434.15 C70.59 356.4, 140.08 277.28, 188.11 219.78 M1.4 439.8 C40.01 396.58, 76.95 353.85, 187.47 225.33 M0.63 440.67 C69.55 361.85, 138.38 283.86, 188.76 226.23 M3.09 447.89 C64.97 371.84, 129.21 298.7, 187.41 232.92 M0.99 446.76 C46.23 394.88, 89.13 345.31, 187.87 231.91 M2.17 452.91 C38.81 410.42, 75 365.89, 187.59 238.01 M1.67 453.67 C45.47 405.21, 86.94 357.39, 187.81 238.3 M2.87 457.37 C48.53 405.09, 95.91 349.81, 188.58 242.56 M1.91 458.62 C66.59 383.2, 134.14 306.48, 188.8 244.1 M-0.45 467.34 C-0.45 467.34, -0.45 467.34, -0.45 467.34 M-0.45 467.34 C-0.45 467.34, -0.45 467.34, -0.45 467.34 M1.54 466.07 C40.61 419.88, 82.31 373.57, 189.69 250.06 M1.12 465.57 C60.49 397.26, 118.73 329.81, 187.81 249.51 M1.83 473.36 C55.79 407.99, 114.96 341.86, 189.82 254.31 M1.31 471.93 C51.11 412.03, 102.57 354.4, 189.26 255.29 M1.69 477.45 C56.27 415.82, 108.02 353.37, 187.98 260.82 M2.02 477.1 C49.42 423.85, 97.5 368.36, 188.89 261.8 M4.19 479.83 C67.11 406.93, 132.72 331.59, 189.25 269.2 M3.13 481.18 C58.72 416.71, 113.12 353.04, 188.43 268.7 M5.17 485.33 C61.45 422.89, 114.59 359.62, 189.7 273.57 M5.3 484.07 C59 420.62, 114.38 357.32, 188.6 273.69 M7.35 486.36 C51.71 441.39, 93.83 392.59, 189.87 281.36 M9.29 487.15 C48.97 441.14, 89.39 395.19, 189.22 281.02 M10.28 490.29 C54.54 437.31, 101.11 386.4, 187.35 284.75 M10.62 490.33 C71.2 419.59, 132.41 349.67, 188.28 285.61 M15.11 493.87 C69.11 430.46, 124.56 365.89, 187.42 292.72 M14.07 493.06 C55.4 442.98, 96.71 395.51, 188.19 293.14 M17.58 495.73 C72.94 430.01, 130.98 363.28, 189.31 298.96 M17.86 494.98 C58.93 446.44, 100.93 398.73, 188.54 299.35 M21.3 496.48 C62.91 452.62, 106.72 403.14, 187.27 304.2 M20.68 497.99 C60.44 453.38, 99.35 408.82, 189.44 304.96 M25.9 499.98 C76.45 442.26, 127.61 382.15, 188.3 310.33 M24.58 499.93 C66.14 452.31, 106.99 405.16, 188.58 310.2 M29.07 499.97 C86.78 437.91, 141.52 370.84, 188.13 316.43 M27.85 500.92 C83.11 439.93, 137.43 376.98, 188.15 316.13 M32.89 501.04 C82.44 447.17, 131.87 387.9, 188.85 322.84 M33.22 502.24 C86.52 437.41, 142.95 374.6, 188.65 322.71 M37.58 504.26 C72.61 461.64, 110.07 416.58, 187.5 330.49 M36.98 503.68 C94.88 437.57, 153.08 371.14, 189.21 330.19 M39.61 506.34 C79.18 459.3, 121.12 413.41, 187.62 334.51 M40.9 505.01 C91.94 443.64, 145 383.88, 189.51 334.83 M43.73 507.03 C72.93 473.62, 100.61 439.71, 187.66 341.37 M44.3 507.15 C81.68 464.22, 119.01 420.04, 188.56 341.5 M48.15 507.98 C86.54 466.8, 126.33 422.08, 189.19 348.06 M48.36 507.98 C104.9 445.27, 157.82 383.67, 188.33 346.66 M54.57 508.37 C106.13 448.12, 158.63 390.02, 188.48 352.71 M52.81 508.78 C96.12 458.98, 140.3 408.16, 189.22 353.12 M57.37 510.49 C82.66 479.86, 109.07 448.79, 188.45 361.45 M57.79 511.68 C107.53 453.09, 158.09 394.32, 188.31 359.73 M61.05 509.95 C90.41 475.12, 121.56 441.61, 190.19 367.45 M62.22 510.29 C89.36 479.22, 117.92 446.06, 188.64 365.53 M65.31 511.14 C106.18 466.85, 140.58 426.58, 186.71 371.46 M66.66 510.91 C96.97 477.17, 126.23 443.31, 189.36 372.22 M70.86 509.95 C102.32 476.12, 131.15 441.78, 188.19 376.43 M73.07 510.89 C101.22 476.6, 129.06 444.61, 188.51 377.07 M75.91 512.04 C99.36 484.03, 126.64 457.97, 189.01 382.31 M77.34 510.88 C103.74 482.27, 127.63 454.28, 188.8 383.19 M84.45 509.91 C111.38 479.05, 137.07 449.09, 188.73 390.45 M82.05 512.53 C122.54 465.01, 163.16 416.69, 188.92 390.39 M88.04 511.53 C123.59 472.26, 155.85 431.92, 190.5 395.59 M88.66 511.75 C123.99 468, 162.83 425.04, 188.44 395.66 M90.85 513.22 C122.76 475.2, 153.04 439.58, 187.47 401.69 M93.01 512.11 C120.98 479.77, 148.73 449.05, 188.63 401.61 M97.97 513.3 C122.82 485.52, 149.58 454.11, 187.75 406.28 M98.1 513.03 C124.43 481.62, 150.99 449.27, 189.88 407.38 M103.23 514.39 C134.97 474.43, 170.65 437.36, 189.54 416.15 M102.26 514.76 C125.65 485.88, 150.03 459.06, 189.23 414.86 M108.75 513.35 C139.33 479.5, 169.04 442.54, 190.11 419.66 M107.26 512.73 C140.62 476.96, 171.07 442.48, 187.83 421.6 M112.14 512.9 C133.76 487.81, 158.13 463.69, 188.18 426.66 M113.84 511.82 C139.52 483.87, 165.5 455.1, 189.73 427.23 M120.81 512.99 C135.49 494.36, 148.78 477.29, 190.35 432.33 M120.51 512.27 C146.52 481.29, 173.45 449.67, 188.77 431.98 M126.99 513.4 C146.73 486.34, 168.08 463.08, 188.06 437.59 M124.99 510.86 C148 486.54, 170.72 460.12, 187.94 437.51 M129.46 510.37 C147.63 493.56, 161.22 474.15, 188.7 444.7 M130.4 512.11 C144.95 495.03, 158.23 478.83, 188.98 445.2 M135.89 508.02 C151.19 492.01, 165.68 474.66, 188.62 449.64 M138.01 510.18 C149.13 495.41, 163.04 479.38, 187.77 450.98 M142.66 509.16 C156.38 496.23, 169.97 479.19, 187.48 457.99 M143.5 508.37 C153.86 496.97, 164.75 485.32, 189.18 457.88 M149.76 505.49 C159.66 495.59, 167.78 486.55, 186.06 465.57 M150.33 505.77 C159.52 496.12, 168.44 485.98, 187.25 463.13 M187.97 464.13 C188.02 463.95, 188.28 463.58, 188.61 463.24 M187.84 464.15 C187.98 463.95, 188.21 463.74, 188.58 463.36 M157.99 506.01 C169.54 493.69, 178.64 482.04, 187.62 470.03 M158.22 504.27 C164.45 497.96, 168.75 490.12, 186.77 469.52 M167.13 501.24 C175.07 492.56, 181.48 484.11, 188.44 476.67 M166.87 501.03 C172.03 494.97, 178.74 487.89, 186.99 478.38" stroke="#40c057" stroke-width="0.5" fill="none"></path><path d="M-0.67 -0.84 C-0.81 69.28, -0.1 342.26, -0.16 420.63 C-0.22 498.99, -2.78 457.77, -1.03 469.35 C0.72 480.92, 2.98 483.94, 10.35 490.09 C17.71 496.24, 27.96 502.46, 43.14 506.22 C58.31 509.98, 82.97 513.19, 101.39 512.66 C119.82 512.12, 139.87 507.91, 153.66 503 C167.45 498.09, 178.28 489.4, 184.16 483.2 C190.03 477, 188.11 475.33, 188.9 465.81 C189.68 456.28, 189.11 497.7, 188.86 426.05 C188.62 354.41, 187.82 107.28, 187.4 35.93 C186.99 -35.43, 188.59 7.67, 186.39 -2.09 C184.19 -11.85, 180.42 -17.24, 174.19 -22.64 C167.95 -28.04, 162.92 -31.02, 148.99 -34.5 C135.05 -37.99, 107.97 -42.98, 90.59 -43.54 C73.22 -44.1, 58.39 -42.12, 44.73 -37.86 C31.08 -33.59, 15.96 -24.42, 8.67 -17.96 C1.38 -11.5, 2.47 -2.21, 1.01 0.93 C-0.45 4.07, 0.07 0.96, -0.08 0.86 M1.17 1.33 C1.36 71.66, 2.11 344.46, 2.14 422.14 C2.16 499.82, -0.16 456.44, 1.3 467.41 C2.77 478.39, 3.61 481.48, 10.93 487.97 C18.24 494.45, 30.4 502.34, 45.19 506.32 C59.99 510.3, 81.61 512.06, 99.7 511.84 C117.79 511.63, 139.79 509.83, 153.74 505.05 C167.69 500.26, 177.71 489.84, 183.4 483.13 C189.08 476.41, 186.76 474.41, 187.84 464.77 C188.93 455.14, 189.99 497.18, 189.93 425.32 C189.87 353.45, 187.75 104.93, 187.49 33.59 C187.24 -37.76, 190.63 6.8, 188.4 -2.73 C186.18 -12.27, 180.84 -18.28, 174.13 -23.62 C167.42 -28.97, 162.06 -31.46, 148.14 -34.8 C134.22 -38.14, 107.65 -42.8, 90.59 -43.66 C73.54 -44.53, 59.61 -44.41, 45.8 -39.99 C31.99 -35.58, 15.31 -23.56, 7.73 -17.18 C0.15 -10.81, 1.84 -4.87, 0.31 -1.74 C-1.23 1.38, -1.57 1.49, -1.51 1.57" stroke="#087f5b" stroke-width="1" fill="none"></path></g></g><g stroke-linecap="round"><g transform="translate(993.9319603648146 309.4088560488891) rotate(89.99999999999994 91.15018002596429 22.039665949237303)"><path d="M-0.84 -0.79 C-0.03 2.19, 0.23 11.34, 4.76 17.17 C9.29 22.99, 18.14 29.94, 26.34 34.16 C34.55 38.39, 42.41 40.77, 54 42.53 C65.59 44.28, 80.32 45.66, 95.88 44.68 C111.44 43.71, 134.01 41.3, 147.34 36.65 C160.67 32, 169.91 23.05, 175.87 16.79 C181.84 10.53, 181.9 2.13, 183.14 -0.93 M0.92 1.42 C1.57 4.56, -0.39 13.02, 3.79 18.15 C7.97 23.27, 17.5 27.93, 25.99 32.16 C34.47 36.38, 42.72 41.86, 54.68 43.5 C66.65 45.13, 82.67 42.77, 97.78 41.97 C112.88 41.17, 132.24 43.08, 145.32 38.7 C158.4 34.33, 170.07 22.27, 176.25 15.71 C182.42 9.15, 181.42 2.41, 182.38 -0.65" stroke="#087f5b" stroke-width="1" fill="none"></path></g></g><g stroke-linecap="round"><g transform="translate(1157.6515281382794 309.6217085269434) rotate(89.99999999999994 91.25188908073716 17.542242851375363)"><path d="M-0.79 -0.05 C-0.05 2.66, -0.75 10.77, 3.74 15.39 C8.22 20.01, 17.96 24.64, 26.13 27.7 C34.3 30.76, 40.92 32.46, 52.77 33.74 C64.62 35.02, 81.78 36.07, 97.22 35.4 C112.66 34.73, 132.22 33.37, 145.41 29.72 C158.61 26.08, 170.09 18.68, 176.4 13.55 C182.71 8.43, 182.24 1.61, 183.29 -1.02 M1 -1.12 C2.16 1.32, 1.77 9.19, 5.89 13.68 C10.01 18.16, 17.87 22.31, 25.7 25.79 C33.54 29.27, 41.11 32.85, 52.88 34.55 C64.65 36.26, 80.74 36.43, 96.3 36.01 C111.87 35.6, 132.76 36, 146.26 32.07 C159.76 28.15, 171.21 17.99, 177.31 12.47 C183.41 6.96, 182.21 1.1, 182.88 -1.01" stroke="#087f5b" stroke-width="1" fill="none"></path></g></g><g stroke-linecap="round" transform="translate(1327.5192149704644 291.45502363327773) rotate(89.99999999999994 92.32696762003883 41.04658315696088)"><path d="M126.53 2.92 C138.75 4.75, 151.51 9.85, 160.5 14.28 C169.48 18.71, 176.47 23.89, 180.44 29.49 C184.41 35.08, 186.34 42.1, 184.32 47.84 C182.3 53.59, 175.97 59.26, 168.32 63.96 C160.68 68.65, 149.95 73.01, 138.43 76.02 C126.92 79.03, 112.61 81.39, 99.23 82.03 C85.86 82.66, 70.81 82.02, 58.18 79.83 C45.56 77.64, 32.53 73.24, 23.5 68.9 C14.47 64.56, 7.71 59.39, 4 53.77 C0.28 48.16, -0.8 41.32, 1.21 35.22 C3.21 29.11, 8.56 22.1, 16.03 17.15 C23.5 12.2, 34.46 8.51, 46.05 5.51 C57.64 2.51, 71.71 -0.5, 85.57 -0.85 C99.43 -1.19, 121.56 2.57, 129.21 3.45 C136.85 4.32, 131.99 3.89, 131.44 4.39 M80.04 0.75 C92.21 -0.4, 107.65 0.9, 120.52 2.53 C133.39 4.15, 147.48 6.54, 157.27 10.51 C167.06 14.48, 174.84 20.65, 179.26 26.34 C183.69 32.04, 185.22 38.75, 183.82 44.66 C182.42 50.56, 177.76 56.62, 170.86 61.79 C163.95 66.96, 153.47 72.2, 142.41 75.69 C131.34 79.18, 117.83 81.94, 104.46 82.72 C91.08 83.5, 75.13 82.56, 62.16 80.37 C49.2 78.18, 35.89 74, 26.67 69.6 C17.46 65.2, 11.09 59.67, 6.87 53.98 C2.65 48.28, 0.01 41.28, 1.34 35.41 C2.67 29.54, 7.99 23.45, 14.85 18.75 C21.71 14.04, 31.37 10.18, 42.49 7.19 C53.6 4.19, 74.9 1.97, 81.53 0.77 C88.15 -0.44, 81.95 -0.82, 82.24 -0.03" stroke="none" stroke-width="0" fill="#fff"></path><path d="M121.58 1.69 C134.1 2.85, 148.28 7.89, 157.72 12.04 C167.16 16.19, 173.73 21.01, 178.21 26.6 C182.69 32.19, 185.64 39.51, 184.61 45.58 C183.59 51.65, 179.02 58.11, 172.06 63.03 C165.09 67.95, 154.29 71.88, 142.84 75.1 C131.39 78.31, 116.77 81.56, 103.38 82.31 C89.98 83.06, 75.16 81.63, 62.49 79.6 C49.82 77.58, 36.89 74.28, 27.36 70.16 C17.83 66.04, 9.89 60.32, 5.32 54.89 C0.75 49.47, -1.44 43.43, -0.05 37.62 C1.33 31.82, 6.49 25.22, 13.63 20.05 C20.77 14.88, 31.43 9.72, 42.79 6.6 C54.16 3.47, 68.24 1.85, 81.83 1.3 C95.43 0.75, 116.91 2.82, 124.34 3.27 C131.77 3.73, 127.02 3.55, 126.4 4.04 M120.27 2.77 C132.8 3.69, 145.75 7.34, 155.15 11.16 C164.56 14.99, 171.68 20.22, 176.69 25.74 C181.71 31.26, 185.81 38.55, 185.23 44.28 C184.66 50.02, 179.8 55.17, 173.25 60.15 C166.7 65.13, 157.3 70.45, 145.96 74.17 C134.61 77.88, 118.57 81.62, 105.17 82.44 C91.76 83.25, 78.33 81.05, 65.54 79.06 C52.76 77.07, 38.26 74.22, 28.46 70.51 C18.66 66.79, 11.21 62, 6.72 56.78 C2.24 51.56, 0.5 44.99, 1.53 39.17 C2.55 33.35, 6.69 27.16, 12.88 21.85 C19.07 16.54, 27.9 10.82, 38.68 7.31 C49.46 3.81, 63.95 1.53, 77.56 0.83 C91.16 0.13, 113.65 2.6, 120.3 3.1 C126.96 3.61, 117.89 3.51, 117.47 3.87" stroke="#087f5b" stroke-width="1" fill="none"></path></g><g stroke-linecap="round"><g transform="translate(1897.4902491277521 134.45750969470373) rotate(0 43.66036467929246 47.954250617236994)" fill-rule="evenodd"><path d="M-0.8 -1.92 L1.65 97.22 L-0.49 99.03 L19.12 103.38 L47.19 106 L72.68 103.42 L81.57 101.21 L87.4 95.22 L88.49 -0.55 L88.4 -0.89 L84.87 -2.34 L75.67 -5.89 L41.88 -9.6 L12.29 -6.13 L4.71 -3.05 L-0.07 -0.77" stroke="none" stroke-width="0" fill="#228be6" fill-rule="evenodd"></path><path d="M-0.04 0.05 C-0.02 14.32, -0.66 70.49, -0.64 86.39 C-0.62 102.28, -0.7 93.31, 0.1 95.43 C0.89 97.55, 0.58 97.71, 4.12 99.12 C7.67 100.52, 14.23 103.03, 21.37 103.87 C28.5 104.7, 38.42 104.47, 46.95 104.13 C55.48 103.79, 65.89 102.86, 72.54 101.84 C79.2 100.83, 84.41 98.94, 86.89 98.02 C89.36 97.1, 87.23 98.19, 87.4 96.32 C87.56 94.46, 87.85 101.66, 87.85 86.81 C87.85 71.96, 87.46 21.94, 87.38 7.22 C87.31 -7.5, 88.28 0.59, 87.4 -1.5 C86.53 -3.59, 85.12 -4.56, 82.11 -5.32 C79.1 -6.08, 75.85 -5.36, 69.35 -6.05 C62.84 -6.74, 51.17 -9.24, 43.09 -9.46 C35.02 -9.68, 27.36 -8.49, 20.92 -7.38 C14.47 -6.27, 7.92 -3.9, 4.41 -2.77 C0.91 -1.64, 0.64 -1.03, -0.12 -0.62 C-0.88 -0.21, -0.01 -0.46, -0.14 -0.3 M-1.52 -0.97 C-1.06 12.85, 1.43 68.19, 1.58 84.44 C1.73 100.69, -1.05 93.98, -0.63 96.53 C-0.2 99.07, 0.64 98.41, 4.15 99.72 C7.66 101.02, 13.08 103.25, 20.44 104.36 C27.81 105.48, 39.55 106.54, 48.35 106.41 C57.14 106.27, 66.9 105.07, 73.23 103.55 C79.56 102.03, 83.68 98.63, 86.33 97.29 C88.98 95.96, 88.76 97.42, 89.12 95.56 C89.47 93.7, 88.74 100.68, 88.45 86.12 C88.17 71.56, 87.82 22.37, 87.4 8.2 C86.98 -5.96, 86.77 2.97, 85.95 1.13 C85.13 -0.72, 85.43 -1.73, 82.5 -2.87 C79.56 -4.02, 74.84 -4.51, 68.36 -5.74 C61.88 -6.96, 51.36 -9.58, 43.62 -10.21 C35.89 -10.85, 28.64 -10.38, 21.95 -9.54 C15.26 -8.71, 7.39 -6.7, 3.49 -5.2 C-0.41 -3.7, -0.6 -1.38, -1.45 -0.55 C-2.29 0.29, -1.69 -0.08, -1.6 -0.21" stroke="#0a11d3" stroke-width="1" fill="none"></path></g></g><g stroke-linecap="round"><g transform="translate(1898.1776107172495 199.74763772549136) rotate(0 44.226870930019345 4.377853259407743)"><path d="M0.05 -0.93 C0.36 -0.26, 0.68 2.71, 2.66 3.99 C4.64 5.27, 8.26 5.72, 11.94 6.76 C15.62 7.8, 18.93 9.79, 24.75 10.21 C30.56 10.64, 39.22 9.66, 46.83 9.32 C54.44 8.98, 64.17 8.99, 70.39 8.17 C76.6 7.35, 81.27 5.9, 84.14 4.38 C87 2.86, 86.69 -0.1, 87.58 -0.96 M-1.38 1.19 C-1.27 2.08, -0.17 4.46, 1.89 5.57 C3.95 6.68, 7.19 7.42, 10.95 7.86 C14.72 8.3, 18.74 7.9, 24.49 8.21 C30.24 8.51, 37.64 9.86, 45.46 9.69 C53.29 9.52, 65 8.21, 71.46 7.18 C77.91 6.15, 81.11 4.96, 84.17 3.51 C87.24 2.05, 89.13 -1.2, 89.84 -1.56" stroke="#0a11d3" stroke-width="1" fill="none"></path></g></g><g stroke-linecap="round"><g transform="translate(1897.083869205188 166.67348316341963) rotate(0 43.495337278149236 5.035077056262992)"><path d="M-0.93 0.34 C-0.52 0.91, 0.26 2.5, 2.41 3.49 C4.55 4.47, 7.88 5.24, 11.94 6.22 C16 7.2, 20.98 8.96, 26.76 9.37 C32.53 9.78, 39.2 9.1, 46.6 8.7 C53.99 8.29, 64.52 7.92, 71.12 6.93 C77.72 5.94, 83.4 3.8, 86.18 2.76 C88.96 1.73, 87.5 1.34, 87.8 0.73 M0.78 -0.53 C1.04 0.2, -0.19 3.54, 1.5 4.8 C3.2 6.06, 7.22 6.07, 10.95 7.03 C14.68 7.99, 18.2 10.29, 23.9 10.58 C29.59 10.87, 36.99 9.02, 45.11 8.75 C53.22 8.47, 66.16 9.62, 72.58 8.94 C79 8.27, 81.32 6.02, 83.64 4.7 C85.96 3.37, 85.48 1.59, 86.51 1" stroke="#0a11d3" stroke-width="1" fill="none"></path></g></g><g stroke-linecap="round" transform="translate(1895.9630465190262 126.43281346760705) rotate(0 43.825373054270926 8.863351988406833)"><path d="M48.23 -0.21 C57.37 -0.14, 69.42 1.16, 76.05 2.63 C82.68 4.1, 87.52 6.76, 88.03 8.61 C88.54 10.46, 84.85 12.15, 79.1 13.73 C73.36 15.31, 62.62 17.61, 53.57 18.08 C44.51 18.55, 33.16 17.4, 24.76 16.55 C16.36 15.69, 7.06 14.82, 3.19 12.97 C-0.68 11.13, -1.22 7.48, 1.55 5.46 C4.31 3.45, 11.26 1.61, 19.76 0.86 C28.27 0.11, 46.47 1.1, 52.57 0.99 C58.68 0.88, 56.48 0.13, 56.41 0.18 M50.23 -0.4 C59.01 -0.6, 72.27 0.78, 78.33 2.17 C84.39 3.57, 86.59 6.08, 86.59 7.96 C86.59 9.84, 84.47 11.85, 78.36 13.47 C72.25 15.1, 59.59 17.17, 49.93 17.7 C40.27 18.24, 28.53 17.55, 20.41 16.69 C12.29 15.83, 3.99 14.23, 1.19 12.53 C-1.61 10.83, 0.15 8.53, 3.62 6.5 C7.09 4.47, 14.15 1.38, 22.01 0.35 C29.86 -0.68, 45.63 0.28, 50.75 0.34 C55.87 0.4, 52.96 0.54, 52.73 0.69" stroke="none" stroke-width="0" fill="#fff"></path><path d="M37.06 0.3 C45.8 -0.08, 57.69 -0.12, 65.69 0.64 C73.69 1.4, 81.73 3.09, 85.07 4.86 C88.42 6.64, 89.05 9.18, 85.76 11.29 C82.47 13.4, 73.64 16.53, 65.34 17.52 C57.04 18.5, 45.24 17.71, 35.98 17.22 C26.72 16.73, 15.8 16.11, 9.79 14.56 C3.78 13.01, -0.18 9.91, -0.07 7.9 C0.05 5.9, 3.33 3.73, 10.48 2.55 C17.63 1.36, 36.14 1.24, 42.82 0.81 C49.5 0.37, 50.47 -0.12, 50.55 -0.04 M54.62 0.14 C63.12 0.32, 73.91 1.16, 79.44 2.65 C84.97 4.14, 88.86 6.75, 87.83 9.07 C86.8 11.39, 79.78 15.36, 73.26 16.58 C66.74 17.79, 57.74 16.6, 48.71 16.37 C39.68 16.15, 26.97 16.06, 19.06 15.21 C11.15 14.36, 3.57 12.94, 1.24 11.28 C-1.09 9.62, 1 6.89, 5.09 5.25 C9.18 3.62, 17.37 2.34, 25.77 1.47 C34.18 0.6, 50.85 0.14, 55.5 0.03 C60.14 -0.09, 53.77 0.5, 53.64 0.8" stroke="#0a11d3" stroke-width="1" fill="none"></path></g><g stroke-linecap="round" transform="translate(1967.4727788196064 151.00861634474063) rotate(0 6.423028523489847 6.970952181208048)"><path d="M3.77 1.04 C4.93 0.57, 6.91 0.44, 8.31 0.81 C9.72 1.18, 11.51 2.17, 12.19 3.25 C12.87 4.34, 12.54 5.78, 12.4 7.33 C12.25 8.87, 12.32 11.51, 11.32 12.52 C10.31 13.54, 7.76 13.48, 6.37 13.43 C4.99 13.39, 4.2 13.03, 3.01 12.24 C1.82 11.44, -0.29 10.16, -0.77 8.65 C-1.25 7.14, -0.95 4.71, 0.13 3.17 C1.21 1.64, 4.83 -0.05, 5.71 -0.56 C6.6 -1.06, 5.51 -0.16, 5.44 0.14 M8.8 1.58 C9.59 2.19, 10.84 1.77, 11.32 3.19 C11.79 4.61, 12.04 8.71, 11.62 10.09 C11.2 11.48, 9.78 11.09, 8.8 11.5 C7.82 11.91, 6.89 12.75, 5.74 12.55 C4.59 12.36, 2.74 11.05, 1.89 10.33 C1.05 9.62, 0.66 9.52, 0.68 8.25 C0.7 6.98, 1.42 4.2, 2 2.71 C2.58 1.22, 2.9 -0.58, 4.16 -0.69 C5.42 -0.8, 8.62 2.01, 9.54 2.03 C10.45 2.04, 9.7 -0.27, 9.65 -0.6" stroke="none" stroke-width="0" fill="#fff"></path><path d="M5.47 0.08 C6.79 -0.39, 8.09 0.13, 9.09 1 C10.09 1.88, 11.03 4.01, 11.49 5.33 C11.96 6.65, 12 7.69, 11.86 8.93 C11.71 10.17, 11.77 12, 10.62 12.74 C9.46 13.48, 6.46 13.58, 4.94 13.36 C3.42 13.13, 2.49 12.41, 1.5 11.39 C0.52 10.37, -0.86 8.78, -0.96 7.22 C-1.07 5.66, -0.41 3.19, 0.88 2.04 C2.17 0.89, 5.87 0.65, 6.78 0.34 C7.69 0.02, 6.39 -0.01, 6.33 0.14 M8.64 0.12 C9.71 0.74, 10.35 2.9, 10.93 4.04 C11.51 5.18, 11.96 5.36, 12.11 6.97 C12.25 8.57, 13.01 12.44, 11.81 13.69 C10.61 14.93, 6.65 14.73, 4.89 14.45 C3.13 14.16, 2.02 12.88, 1.24 11.95 C0.46 11.02, 0.24 10.26, 0.22 8.87 C0.21 7.48, 0.32 5, 1.13 3.61 C1.94 2.22, 3.85 1.28, 5.08 0.51 C6.31 -0.25, 7.86 -1.07, 8.53 -0.96 C9.2 -0.84, 8.97 0.91, 9.09 1.2" stroke="#0a11d3" stroke-width="1" fill="none"></path></g><g stroke-linecap="round" transform="translate(1967.4727788196064 181.6110702038011) rotate(0 6.423028523489847 6.970952181208048)"><path d="M7.02 -0.11 C8.47 -0.09, 10.11 1.07, 11.07 1.99 C12.02 2.91, 12.68 3.92, 12.72 5.44 C12.77 6.96, 11.96 9.81, 11.33 11.12 C10.69 12.43, 10.2 12.79, 8.92 13.28 C7.65 13.77, 5.05 14.68, 3.66 14.05 C2.28 13.41, 1.16 10.99, 0.61 9.49 C0.06 7.99, 0.15 6.25, 0.35 5.06 C0.56 3.88, 0.87 3.29, 1.83 2.38 C2.79 1.46, 5.23 -0.08, 6.13 -0.41 C7.04 -0.73, 7.06 0.08, 7.24 0.43 M10.15 -0.27 C11.4 0.23, 10.69 1.94, 11.27 3.3 C11.86 4.65, 14.09 6.28, 13.65 7.88 C13.21 9.49, 10.17 11.89, 8.61 12.91 C7.05 13.94, 5.69 14.14, 4.31 14.06 C2.93 13.97, 0.91 13.41, 0.34 12.4 C-0.22 11.4, 0.78 9.79, 0.92 8.05 C1.07 6.31, 0.69 3.24, 1.22 1.97 C1.75 0.69, 2.54 0.52, 4.1 0.38 C5.66 0.24, 9.98 1.01, 10.6 1.13 C11.21 1.24, 8.27 0.96, 7.79 1.06" stroke="none" stroke-width="0" fill="#fff"></path><path d="M3.88 0.01 C4.92 -0.81, 6.93 -1.08, 8.37 -0.66 C9.82 -0.23, 11.89 0.99, 12.55 2.57 C13.22 4.14, 12.71 7.28, 12.38 8.8 C12.04 10.32, 11.56 10.84, 10.54 11.69 C9.53 12.55, 7.62 13.95, 6.28 13.93 C4.94 13.91, 3.47 12.58, 2.49 11.58 C1.52 10.57, 0.79 9.08, 0.41 7.92 C0.04 6.76, -0.48 5.93, 0.25 4.61 C0.97 3.3, 3.98 0.67, 4.78 0.02 C5.58 -0.64, 4.98 0.4, 5.05 0.69 M5.84 -1.16 C7.33 -1.36, 9.85 -0.46, 10.76 0.89 C11.66 2.25, 10.85 5.63, 11.27 6.97 C11.7 8.31, 13.64 8.02, 13.32 8.95 C12.99 9.88, 10.83 11.75, 9.31 12.55 C7.79 13.35, 5.44 14.04, 4.2 13.75 C2.96 13.46, 2.51 11.99, 1.88 10.81 C1.24 9.62, 0.31 8.18, 0.38 6.63 C0.46 5.08, 1.58 2.54, 2.31 1.49 C3.04 0.44, 4.02 0.43, 4.77 0.32 C5.51 0.21, 6.62 0.83, 6.79 0.83" stroke="#0a11d3" stroke-width="1" fill="none"></path></g><g stroke-linecap="round" transform="translate(1967.4727788196064 214.87187137829778) rotate(0 6.423028523489847 6.970952181208077)"><path d="M4.99 0.62 C6.34 0.14, 8.59 0.26, 9.76 0.78 C10.93 1.3, 11.43 2.29, 12 3.74 C12.56 5.19, 13.54 8.05, 13.13 9.49 C12.73 10.93, 10.74 11.69, 9.56 12.38 C8.38 13.07, 7.54 13.74, 6.07 13.65 C4.6 13.57, 1.85 13.04, 0.74 11.88 C-0.38 10.72, -0.86 8.35, -0.63 6.7 C-0.39 5.04, 1.17 3.04, 2.15 1.92 C3.14 0.81, 4.57 0.25, 5.31 0.01 C6.05 -0.23, 6.37 0.22, 6.6 0.5 M2.53 -0.33 C3.6 -1, 5.66 0.97, 6.98 1.27 C8.3 1.58, 9.47 0.7, 10.47 1.5 C11.46 2.3, 12.81 4.58, 12.94 6.05 C13.07 7.53, 12.1 8.92, 11.25 10.38 C10.4 11.84, 9.1 14.42, 7.83 14.81 C6.55 15.2, 4.98 13.84, 3.59 12.72 C2.19 11.6, -0.08 9.3, -0.55 8.09 C-1.03 6.88, -0.02 6.93, 0.73 5.46 C1.48 3.99, 3.41 0.24, 3.92 -0.75 C4.43 -1.74, 3.75 -0.87, 3.79 -0.48" stroke="none" stroke-width="0" fill="#fff"></path><path d="M8.6 0.73 C9.63 1.38, 10.71 3.5, 11.28 4.77 C11.85 6.04, 12.06 7.08, 12.02 8.36 C11.99 9.63, 12.17 11.57, 11.09 12.42 C10 13.27, 7.02 13.53, 5.49 13.44 C3.95 13.34, 2.95 12.77, 1.88 11.83 C0.81 10.9, -0.72 9.37, -0.94 7.82 C-1.16 6.27, -0.54 3.73, 0.54 2.52 C1.62 1.31, 4.14 0.84, 5.57 0.56 C7 0.27, 8.37 0.63, 9.12 0.81 C9.87 1, 9.92 1.55, 10.05 1.64 M3.77 0.55 C4.95 -0.04, 7.03 -1.52, 8.69 -0.71 C10.35 0.11, 13.31 3.73, 13.74 5.43 C14.16 7.12, 12.04 8.27, 11.26 9.46 C10.48 10.65, 9.97 11.68, 9.07 12.57 C8.17 13.47, 7.04 14.89, 5.85 14.81 C4.66 14.73, 2.79 13.3, 1.93 12.09 C1.06 10.88, 0.83 9.35, 0.67 7.56 C0.51 5.78, 0.21 2.5, 0.98 1.36 C1.74 0.23, 4.47 1, 5.25 0.76 C6.02 0.52, 5.74 -0.16, 5.64 -0.08" stroke="#0a11d3" stroke-width="1" fill="none"></path></g><g stroke-linecap="round"><g transform="translate(1877.311677699181 338.74322398041807) rotate(0 43.8960992185506 48.6151015542286)" fill-rule="evenodd"><path d="M-0.83 -0.52 L0.82 95.36 L2.21 98.99 L20.25 102.9 L45.73 105.99 L73.18 102.47 L79.69 102.08 L87.34 95.35 L88.55 -2.56 L86.46 1.23 L83.87 -3.63 L77.14 -5.48 L43.42 -7.19 L13.1 -7.77 L3.05 -2.6 L-1.36 -1.41" stroke="none" stroke-width="0" fill="#228be6" fill-rule="evenodd"></path><path d="M0.29 -0.75 C0.26 13.95, -0.27 70.98, -0.25 87.02 C-0.24 103.06, -0.4 93.21, 0.4 95.47 C1.2 97.73, 1.12 99.03, 4.54 100.55 C7.97 102.07, 13.89 103.97, 20.96 104.58 C28.02 105.19, 38.35 104.53, 46.91 104.22 C55.47 103.9, 65.96 103.56, 72.32 102.69 C78.68 101.83, 82.55 100.48, 85.06 99.03 C87.58 97.58, 86.71 95.79, 87.42 94 C88.13 92.2, 89.39 102.64, 89.31 88.25 C89.22 73.85, 87.32 22.42, 86.9 7.63 C86.48 -7.17, 87.59 1.4, 86.77 -0.51 C85.94 -2.42, 84.74 -2.8, 81.95 -3.84 C79.16 -4.88, 76.48 -5.91, 70.02 -6.76 C63.57 -7.61, 51.46 -8.57, 43.23 -8.94 C35.01 -9.32, 27.22 -9.97, 20.69 -9.02 C14.15 -8.07, 7.4 -4.67, 4.03 -3.23 C0.67 -1.79, 1.23 -0.96, 0.5 -0.38 C-0.22 0.2, -0.06 0.2, -0.3 0.26 M-1.01 1.47 C-1.24 15.95, -1.63 69.55, -1.49 85.4 C-1.35 101.26, -1.21 93.84, -0.17 96.59 C0.88 99.34, 1.46 100.42, 4.79 101.9 C8.12 103.38, 12.57 104.68, 19.82 105.45 C27.07 106.23, 39.44 107.25, 48.28 106.54 C57.13 105.83, 66.4 102.47, 72.89 101.19 C79.37 99.91, 84.5 99.76, 87.21 98.84 C89.92 97.92, 89.19 97.42, 89.15 95.67 C89.12 93.92, 87.43 102.79, 87.01 88.31 C86.6 73.84, 86.39 23.71, 86.67 8.82 C86.94 -6.07, 89.38 1.16, 88.64 -1.03 C87.9 -3.21, 85.45 -3.31, 82.24 -4.28 C79.03 -5.24, 75.79 -5.96, 69.39 -6.82 C62.99 -7.68, 51.8 -9.17, 43.84 -9.43 C35.87 -9.69, 28.42 -9.58, 21.6 -8.38 C14.78 -7.18, 6.6 -3.61, 2.91 -2.25 C-0.77 -0.88, -0.31 -0.67, -0.49 -0.18 C-0.67 0.3, 1.89 0.92, 1.82 0.66" stroke="#0a11d3" stroke-width="1" fill="none"></path></g></g><g stroke-linecap="round"><g transform="translate(1877.9990392886784 404.0333520112057) rotate(0 43.924155352620005 4.192985759722433)"><path d="M-0.75 -0.54 C-0.01 0.12, 1.17 3, 3.29 4.29 C5.41 5.58, 8.17 6.26, 11.98 7.18 C15.79 8.1, 20.25 9.46, 26.18 9.8 C32.11 10.15, 40.16 9.58, 47.54 9.27 C54.92 8.96, 64.23 9.06, 70.47 7.94 C76.71 6.82, 81.96 4.04, 84.99 2.56 C88.01 1.08, 88.23 -0.62, 88.6 -0.93 M1.06 1.78 C1.83 2.05, 1.19 1.25, 2.85 2.37 C4.51 3.49, 7.04 7.63, 11.01 8.5 C14.98 9.37, 20.75 7.4, 26.67 7.58 C32.6 7.77, 39.07 9.75, 46.55 9.63 C54.04 9.5, 65.1 7.7, 71.59 6.83 C78.07 5.96, 82.78 5.78, 85.47 4.39 C88.16 3, 87.21 -0.78, 87.72 -1.53" stroke="#0a11d3" stroke-width="1" fill="none"></path></g></g><g stroke-linecap="round"><g transform="translate(1876.9052977766169 370.95919744913397) rotate(0 43.64066466650138 4.250521191923099)"><path d="M-0.54 0.97 C-0.14 1.68, 0.56 2.41, 2.71 3.53 C4.86 4.64, 8.42 6.56, 12.36 7.65 C16.3 8.74, 20.65 9.89, 26.35 10.08 C32.05 10.27, 39.13 9.17, 46.55 8.78 C53.98 8.4, 64.59 8.61, 70.89 7.78 C77.2 6.94, 81.54 5.34, 84.36 3.78 C87.18 2.21, 86.98 -1.06, 87.83 -1.6 M1.37 0.43 C1.62 1.38, 0.26 4.01, 1.96 4.86 C3.67 5.72, 7.43 5.03, 11.59 5.56 C15.75 6.08, 21.36 7.45, 26.93 8.01 C32.51 8.56, 37.49 9.11, 45.04 8.88 C52.59 8.64, 65.65 7.63, 72.23 6.58 C78.81 5.53, 82.13 3.49, 84.52 2.58 C86.9 1.67, 85.9 1.6, 86.55 1.11" stroke="#0a11d3" stroke-width="1" fill="none"></path></g></g><g stroke-linecap="round" transform="translate(1875.784475090455 330.7185277533214) rotate(0 43.825373054270926 8.863351988406805)"><path d="M34.92 1.14 C43.69 0.46, 57.02 -0.72, 65.21 0.1 C73.39 0.92, 80.76 4.26, 84.04 6.06 C87.32 7.85, 87.79 9.03, 84.87 10.87 C81.96 12.7, 74.51 16.1, 66.55 17.09 C58.59 18.07, 46.32 17.29, 37.13 16.76 C27.94 16.24, 17.59 15.34, 11.43 13.92 C5.26 12.51, 0.44 9.92, 0.14 8.28 C-0.15 6.63, 3.32 5.41, 9.65 4.04 C15.98 2.67, 33.01 0.78, 38.11 0.04 C43.22 -0.69, 40.22 -0.67, 40.27 -0.38 M47.87 0.37 C57.08 0.62, 69.4 2.26, 76.11 3.83 C82.83 5.4, 87.51 8.26, 88.16 9.8 C88.82 11.34, 85.64 11.72, 80.03 13.06 C74.43 14.4, 63.79 17.11, 54.53 17.85 C45.27 18.59, 33.01 18.39, 24.48 17.51 C15.96 16.62, 7.3 14.33, 3.41 12.54 C-0.49 10.76, -1.89 8.41, 1.12 6.8 C4.12 5.18, 13.46 3.98, 21.44 2.83 C29.43 1.69, 44.33 0.61, 49.03 -0.06 C53.73 -0.72, 49.51 -1.19, 49.66 -1.15" stroke="none" stroke-width="0" fill="#fff"></path><path d="M37.45 0.87 C46.16 0.33, 58.34 -0.02, 66.29 0.79 C74.24 1.6, 82.18 3.8, 85.13 5.71 C88.08 7.63, 87.39 10.61, 83.99 12.27 C80.58 13.93, 72.64 14.63, 64.72 15.65 C56.8 16.67, 45.76 18.53, 36.46 18.39 C27.16 18.24, 15.09 16.42, 8.92 14.79 C2.74 13.15, -0.91 10.43, -0.59 8.58 C-0.27 6.72, 2.88 5.06, 10.82 3.67 C18.76 2.28, 39.34 0.73, 47.02 0.23 C54.71 -0.26, 57.03 0.73, 56.93 0.68 M48.09 -0.32 C56.98 -0.55, 69.16 0.25, 75.75 1.57 C82.33 2.9, 87.06 5.42, 87.58 7.64 C88.09 9.86, 84.4 13.13, 78.84 14.89 C73.27 16.64, 63.15 17.85, 54.18 18.17 C45.2 18.48, 33.5 17.88, 25 16.77 C16.5 15.66, 6.9 13.15, 3.17 11.51 C-0.55 9.87, -0.01 8.74, 2.63 6.95 C5.27 5.15, 11.22 1.95, 19 0.75 C26.78 -0.46, 44.65 -0.25, 49.32 -0.28 C54 -0.3, 47.41 0.52, 47.04 0.59" stroke="#0a11d3" stroke-width="1" fill="none"></path></g><g stroke-linecap="round" transform="translate(1947.2942073910358 355.29433063045497) rotate(0 6.423028523489847 6.97095218120802)"><path d="M7.27 0.94 C8.39 0.71, 8.55 0.53, 9.55 1.2 C10.55 1.88, 12.98 3.56, 13.27 4.98 C13.57 6.4, 11.97 8.45, 11.32 9.74 C10.68 11.03, 10.74 12.09, 9.43 12.74 C8.11 13.39, 5 13.97, 3.43 13.62 C1.86 13.28, 0.73 11.87, 0.02 10.65 C-0.7 9.44, -1.31 7.72, -0.84 6.31 C-0.37 4.89, 1.57 3.31, 2.83 2.17 C4.1 1.03, 6.11 -0.23, 6.75 -0.53 C7.39 -0.84, 6.52 0.08, 6.66 0.33 M3.68 1.04 C4.93 0.6, 7.19 0.24, 8.72 0.71 C10.25 1.19, 12.36 2.66, 12.85 3.89 C13.35 5.11, 11.91 6.68, 11.7 8.07 C11.48 9.46, 12.16 11.25, 11.57 12.21 C10.97 13.16, 9.49 13.83, 8.1 13.81 C6.72 13.79, 4.48 12.62, 3.27 12.09 C2.07 11.56, 1.1 11.92, 0.86 10.6 C0.63 9.29, 1.47 5.74, 1.86 4.21 C2.26 2.67, 3.22 1.72, 3.25 1.38 C3.28 1.04, 2.1 2.35, 2.05 2.17" stroke="none" stroke-width="0" fill="#fff"></path><path d="M7.18 -0.06 C8.35 -0.26, 9.19 0.67, 10.08 1.51 C10.96 2.35, 12.14 3.56, 12.49 4.99 C12.85 6.41, 13.03 8.47, 12.23 10.05 C11.42 11.63, 8.86 14.04, 7.66 14.47 C6.47 14.9, 6.13 13.41, 5.05 12.64 C3.97 11.87, 2.05 10.99, 1.2 9.86 C0.35 8.73, -0.33 7.22, -0.04 5.87 C0.24 4.51, 1.67 2.64, 2.9 1.74 C4.14 0.85, 6.54 0.75, 7.39 0.49 C8.24 0.22, 8.21 0.06, 8 0.14 M7.25 0.45 C8.24 0.71, 9.43 1.56, 10.25 2.59 C11.08 3.63, 11.91 5.22, 12.22 6.68 C12.52 8.14, 12.76 10.09, 12.09 11.36 C11.41 12.64, 9.65 14.16, 8.15 14.33 C6.65 14.49, 4.54 13.07, 3.08 12.38 C1.63 11.69, -0.23 11.55, -0.58 10.17 C-0.94 8.79, 0.44 5.51, 0.96 4.1 C1.48 2.69, 1.48 2.6, 2.53 1.71 C3.59 0.82, 6.39 -0.84, 7.3 -1.24 C8.2 -1.64, 8.06 -1.22, 7.97 -0.68" stroke="#0a11d3" stroke-width="1" fill="none"></path></g><g stroke-linecap="round" transform="translate(1947.2942073910358 385.8967844895154) rotate(0 6.423028523489847 6.97095218120802)"><path d="M8.08 -0.88 C9.27 -0.88, 10.04 1.59, 10.71 2.71 C11.39 3.83, 12.11 4.31, 12.15 5.83 C12.19 7.35, 11.79 10.66, 10.96 11.83 C10.13 13.01, 8.41 12.79, 7.18 12.87 C5.96 12.95, 4.72 12.99, 3.63 12.32 C2.54 11.65, 1.13 9.95, 0.65 8.83 C0.16 7.71, 0.26 6.89, 0.71 5.61 C1.16 4.32, 2.24 2.12, 3.34 1.12 C4.44 0.11, 6.44 -0.44, 7.33 -0.4 C8.21 -0.36, 8.56 1.33, 8.67 1.38 M7 1.01 C8.63 1.19, 10.23 2.63, 11.41 3.3 C12.58 3.96, 13.83 3.71, 14.04 5.02 C14.26 6.33, 13.55 9.59, 12.68 11.15 C11.82 12.71, 10.34 13.99, 8.86 14.4 C7.38 14.81, 5.32 14.22, 3.82 13.59 C2.32 12.96, 0.23 11.77, -0.13 10.63 C-0.5 9.49, 1.19 8.33, 1.62 6.77 C2.04 5.2, 1.45 2.61, 2.4 1.25 C3.36 -0.1, 6.41 -1.07, 7.35 -1.38 C8.28 -1.68, 8.3 -0.73, 8.01 -0.57" stroke="none" stroke-width="0" fill="#fff"></path><path d="M7.61 -0.34 C8.8 -0.32, 10.57 1.07, 11.31 2.35 C12.06 3.63, 12.15 5.98, 12.07 7.36 C12 8.73, 11.47 9.38, 10.85 10.6 C10.23 11.82, 9.79 14.24, 8.35 14.68 C6.91 15.13, 3.65 14.21, 2.21 13.27 C0.78 12.34, 0.02 10.45, -0.25 9.08 C-0.53 7.71, -0.08 6.39, 0.54 5.06 C1.16 3.73, 2.05 1.84, 3.44 1.07 C4.83 0.31, 7.96 0.67, 8.87 0.46 C9.79 0.25, 8.99 -0.33, 8.92 -0.18 M8.22 -0.96 C9.58 -0.77, 10.89 0.65, 11.59 2.17 C12.3 3.69, 12.55 6.44, 12.45 8.16 C12.34 9.87, 11.74 11.49, 10.95 12.44 C10.15 13.39, 9.09 13.94, 7.66 13.84 C6.22 13.74, 3.41 12.58, 2.33 11.87 C1.25 11.15, 1.55 10.93, 1.18 9.53 C0.81 8.13, -0.4 4.99, 0.12 3.47 C0.65 1.95, 3.28 0.91, 4.35 0.42 C5.42 -0.07, 6.1 0.7, 6.52 0.55 C6.95 0.41, 6.52 -0.31, 6.92 -0.45" stroke="#0a11d3" stroke-width="1" fill="none"></path></g><g stroke-linecap="round" transform="translate(1947.2942073910358 419.1575856640121) rotate(0 6.423028523489847 6.97095218120802)"><path d="M6.64 -0.25 C7.87 -0.36, 10.99 0.73, 11.9 1.83 C12.82 2.94, 12.12 4.89, 12.14 6.37 C12.16 7.86, 12.97 9.47, 12.05 10.73 C11.13 11.99, 8.26 13.51, 6.63 13.91 C5.01 14.31, 3.49 13.79, 2.3 13.1 C1.1 12.42, -0.33 11.12, -0.55 9.78 C-0.76 8.43, 0.38 6.6, 1.01 5.03 C1.63 3.46, 2.03 1.12, 3.19 0.37 C4.35 -0.38, 6.8 0.39, 7.99 0.53 C9.17 0.67, 10.4 1.12, 10.29 1.23 M4.64 1.26 C5.97 0.74, 8.43 1.03, 9.4 1.46 C10.38 1.88, 9.87 2.7, 10.49 3.8 C11.12 4.91, 12.96 6.77, 13.17 8.1 C13.38 9.43, 12.75 10.95, 11.77 11.79 C10.79 12.62, 8.69 12.7, 7.28 13.09 C5.87 13.49, 4.27 14.91, 3.33 14.17 C2.4 13.43, 2.13 10.25, 1.65 8.66 C1.17 7.08, 0.35 5.77, 0.45 4.64 C0.55 3.52, 1.83 2.73, 2.25 1.9 C2.67 1.07, 2.88 -0.43, 2.97 -0.35" stroke="none" stroke-width="0" fill="#fff"></path><path d="M7.64 0.13 C8.75 0.3, 10.54 1.04, 11.44 2.22 C12.35 3.4, 13.3 5.43, 13.06 7.2 C12.82 8.98, 10.87 11.89, 9.99 12.87 C9.11 13.84, 8.94 13.17, 7.78 13.04 C6.63 12.9, 4.34 12.77, 3.06 12.07 C1.77 11.37, 0.38 10.18, 0.07 8.85 C-0.23 7.53, 0.58 5.41, 1.22 4.11 C1.87 2.82, 2.6 1.68, 3.94 1.08 C5.29 0.48, 8.44 0.4, 9.31 0.49 C10.17 0.59, 9.14 1.44, 9.14 1.65 M4.4 0.09 C5.64 -0.31, 7.73 -0.08, 9.22 0.68 C10.71 1.44, 12.69 3.11, 13.34 4.68 C13.98 6.24, 13.73 8.76, 13.07 10.07 C12.41 11.39, 10.86 11.79, 9.37 12.56 C7.88 13.33, 5.37 14.98, 4.13 14.69 C2.88 14.41, 2.71 12.05, 1.9 10.85 C1.08 9.66, -0.66 9.18, -0.75 7.53 C-0.85 5.88, 0.22 2.33, 1.33 0.93 C2.45 -0.47, 5.34 -0.95, 5.91 -0.88 C6.49 -0.8, 5.03 1.22, 4.8 1.39" stroke="#0a11d3" stroke-width="1" fill="none"></path></g><g transform="translate(1884.7958003294395 89.02380952380946) rotate(0 57.5 13)"><text x="0" y="18" font-family="Virgil, Segoe UI Emoji" font-size="20px" fill="#000000" text-anchor="start" style="white-space: pre;" direction="ltr">PostgreSQL</text></g><g transform="translate(1864.6172289008675 290.6309523809525) rotate(0 57.5 13)"><text x="0" y="18" font-family="Virgil, Segoe UI Emoji" font-size="20px" fill="#000000" text-anchor="start" style="white-space: pre;" direction="ltr">PostgreSQL</text></g><g stroke-linecap="round"><g transform="translate(1573.5458003294393 192.08775859090042) rotate(0 -58.290401307461366 45.661675174881026)"><path d="M1.64 -0.08 C-17.63 14.75, -97.04 74.86, -116.39 90.26 M-0.92 -2.6 C-20.41 12.61, -99.24 78.84, -118.22 93.92" stroke="#000000" stroke-width="1" fill="none"></path></g><g transform="translate(1573.5458003294393 192.08775859090042) rotate(0 -58.290401307461366 45.661675174881026)"><path d="M-103.05 69.19 C-106.76 79.16, -107.99 85.6, -120.97 92 M-100.93 66.29 C-105.11 72.78, -109.41 81.61, -117.11 95.47" stroke="#000000" stroke-width="1" fill="none"></path></g><g transform="translate(1573.5458003294393 192.08775859090042) rotate(0 -58.290401307461366 45.661675174881026)"><path d="M-90.03 85.05 C-97.41 90.87, -102.18 93.01, -120.97 92 M-87.92 82.16 C-95.05 85.03, -102.39 90.17, -117.11 95.47" stroke="#000000" stroke-width="1" fill="none"></path></g></g><g stroke-linecap="round"><g transform="translate(1568.0458003294393 360.78415109392256) rotate(0 -46.148168982192715 1.029640469733124)"><path d="M-0.9 -1.6 C-16.3 -1.91, -79.19 -0.29, -94.6 0.14 M3.81 3.7 C-11.64 3.45, -79.85 2.45, -96.11 2.35" stroke="#000000" stroke-width="1" fill="none"></path></g><g transform="translate(1568.0458003294393 360.78415109392256) rotate(0 -46.148168982192715 1.029640469733124)"><path d="M-70.1 -5.69 C-77.68 -1.86, -82.75 -3.9, -99.78 -1.34 M-66.04 -7.4 C-73.24 -5.36, -81.13 -1.36, -96.39 2.31" stroke="#000000" stroke-width="1" fill="none"></path></g><g transform="translate(1568.0458003294393 360.78415109392256) rotate(0 -46.148168982192715 1.029640469733124)"><path d="M-70.32 14.83 C-78.15 14.1, -83.17 7.5, -99.78 -1.34 M-66.26 13.12 C-73.72 10, -81.55 8.83, -96.39 2.31" stroke="#000000" stroke-width="1" fill="none"></path></g></g><g stroke-linecap="round"><g transform="translate(230.827755357331 345.77692562228833) rotate(0 53.43278277647707 -0.8925912538210241)"><path d="M-0.35 0.59 C17.83 0.33, 92.28 -1.99, 110.85 -2.38 M-3.98 -1.55 C13.73 -1.48, 90.02 -0.43, 108.97 -0.11" stroke="#000000" stroke-width="1" fill="none"></path></g><g transform="translate(230.827755357331 345.77692562228833) rotate(0 53.43278277647707 -0.8925912538210241)"><path d="M81.48 10.68 C87.39 7.47, 98.61 -0.52, 108.53 -0.16 M80.45 9.72 C87.07 8.64, 94.45 7.12, 108.4 1.75" stroke="#000000" stroke-width="1" fill="none"></path></g><g transform="translate(230.827755357331 345.77692562228833) rotate(0 53.43278277647707 -0.8925912538210241)"><path d="M81.79 -9.84 C87.47 -5.62, 98.58 -6.17, 108.53 -0.16 M80.76 -10.8 C86.95 -7.22, 94.26 -4.06, 108.4 1.75" stroke="#000000" stroke-width="1" fill="none"></path></g></g><g stroke-linecap="round" transform="translate(1551.0458003294398 568.6666666666667) rotate(0 147.5 61.5)"><path d="M2.81 1.08 C112.37 4.42, 225.54 2.71, 292.15 -2.43 M0.79 -1.47 C104.72 0.55, 209.4 1.61, 295.6 -0.59 M297.71 -0.87 C300.8 31.31, 299.85 53.13, 293.64 126.54 M294.31 1.68 C292.07 34.84, 293.57 70.17, 293.47 122.91 M297.79 125.21 C229.7 129.58, 160.62 127.66, 2.96 122.42 M296.13 123.21 C204.11 123.54, 113.45 121.12, -0.82 122.71 M-2.58 123.23 C-3.75 99.36, -0.21 66.07, -1.22 -0.26 M-1.58 122.56 C-0.32 79.37, 2.53 36.59, -1.47 -1.17" stroke="#000000" stroke-width="2" fill="none"></path></g><g transform="translate(1556.0458003294398 616.1666666666667) rotate(0 142.5 14)"><text x="142.5" y="19" font-family="Virgil, Segoe UI Emoji" font-size="20px" fill="#000000" text-anchor="middle" style="white-space: pre;" direction="ltr">Report Service</text></g><g stroke-linecap="round"><g transform="translate(1668.5458003294398 563.9166666666667) rotate(0 -107.90488153189415 -72.891538322717)"><path d="M0.4 0.1 C-35.79 -23.88, -178.64 -121.55, -214.77 -145.89 M-2.83 -2.31 C-39.47 -25.82, -180.31 -119.81, -216.21 -143.41" stroke="#000000" stroke-width="1" fill="none"></path></g><g transform="translate(1668.5458003294398 563.9166666666667) rotate(0 -107.90488153189415 -72.891538322717)"><path d="M-186.9 -134.29 C-201.19 -139.18, -212.39 -142.06, -212.84 -139.65 M-188.62 -135.74 C-196.01 -138.85, -208.75 -141, -216.48 -141.89" stroke="#000000" stroke-width="1" fill="none"></path></g><g transform="translate(1668.5458003294398 563.9166666666667) rotate(0 -107.90488153189415 -72.891538322717)"><path d="M-198.23 -117.18 C-207.93 -128.67, -214.77 -138.12, -212.84 -139.65 M-199.96 -118.63 C-203.18 -128.37, -211.67 -136.93, -216.48 -141.89" stroke="#000000" stroke-width="1" fill="none"></path></g></g><g stroke-linecap="round"><g transform="translate(1854.2693756828949 576.6231719865938) rotate(0 49.528139261885826 55.55108875902522)" fill-rule="evenodd"><path d="M-1.08 0.18 L0.94 112.01 L1.49 112.45 L11.94 119.25 L22.46 118.88 L52.58 121.19 L82.22 116.59 L91 117.5 L98.71 110.98 L99.01 -1.32 L100.13 2.5 L99.03 -0.8 L87.5 -6.52 L49.42 -9.11 L25.05 -8.75 L13.35 -5.47 L5.43 -3.2 L-1.28 -0.57" stroke="none" stroke-width="0" fill="#228be6" fill-rule="evenodd"></path><path d="M-0.05 1.29 C-0.01 17.58, 0.82 80.39, 0.97 98.56 C1.13 116.72, 0.03 107.49, 0.89 110.28 C1.75 113.06, 2.35 113.62, 6.12 115.26 C9.9 116.9, 15.69 119.14, 23.52 120.1 C31.35 121.06, 43.38 121.47, 53.09 121.04 C62.8 120.6, 74.36 118.78, 81.77 117.49 C89.19 116.2, 94.54 114.76, 97.58 113.31 C100.61 111.86, 99.56 111.04, 99.99 108.79 C100.42 106.54, 100.3 116.25, 100.15 99.81 C100 83.37, 99.38 26.46, 99.09 10.16 C98.8 -6.13, 99.52 4.54, 98.42 2.04 C97.33 -0.46, 95.52 -3.44, 92.53 -4.82 C89.54 -6.2, 87.63 -5.36, 80.48 -6.24 C73.32 -7.11, 58.88 -9.77, 49.58 -10.06 C40.27 -10.36, 32.17 -9.03, 24.64 -8 C17.12 -6.97, 8.41 -5.27, 4.45 -3.89 C0.48 -2.51, 1.66 -0.49, 0.87 0.27 C0.09 1.04, 0.06 0.63, -0.24 0.67 M-1.53 0.26 C-1.67 16.74, 0.01 81.21, 0.36 99.76 C0.71 118.31, -0.51 108.79, 0.58 111.56 C1.66 114.34, 3.26 114.86, 6.87 116.42 C10.48 117.98, 14.34 120.3, 22.25 120.94 C30.16 121.59, 44.33 120.55, 54.3 120.28 C64.27 120, 75.04 120.53, 82.05 119.29 C89.07 118.04, 93.69 114.24, 96.39 112.8 C99.1 111.37, 97.55 112.98, 98.29 110.67 C99.03 108.37, 100.72 116.1, 100.82 98.96 C100.91 81.82, 99 23.97, 98.87 7.85 C98.75 -8.27, 101.14 3.95, 100.07 2.23 C99 0.52, 95.75 -1.04, 92.44 -2.44 C89.14 -3.84, 87.26 -5.33, 80.26 -6.17 C73.25 -7.01, 60.05 -7.36, 50.41 -7.48 C40.78 -7.6, 30.31 -7.55, 22.46 -6.91 C14.6 -6.27, 7 -4.82, 3.27 -3.64 C-0.46 -2.46, 0.91 -0.55, 0.07 0.16 C-0.77 0.87, -1.6 0.31, -1.76 0.63" stroke="#0a11d3" stroke-width="1" fill="none"></path></g></g><g stroke-linecap="round"><g transform="translate(1855.1079401417485 652.2175566681868) rotate(0 49.388613427135624 5.700833178486448)"><path d="M0.03 0.7 C0.44 1.59, -0.31 3.96, 2.01 5.37 C4.34 6.79, 9.44 8.27, 14 9.18 C18.56 10.1, 22.71 10.69, 29.36 10.88 C36.02 11.07, 45.26 10.7, 53.93 10.32 C62.6 9.93, 74.35 9.66, 81.38 8.57 C88.4 7.47, 92.95 5.24, 96.08 3.73 C99.22 2.22, 99.57 0.22, 100.18 -0.51 M-1.41 -0.01 C-0.56 0.55, 1.96 2.48, 4.39 3.7 C6.83 4.93, 8.99 5.92, 13.2 7.34 C17.42 8.75, 23.05 11.66, 29.67 12.19 C36.28 12.72, 44.62 10.73, 52.91 10.5 C61.2 10.28, 72.19 12.2, 79.41 10.82 C86.62 9.44, 92.94 4.18, 96.21 2.23 C99.47 0.28, 98.13 -0.15, 98.99 -0.88" stroke="#0a11d3" stroke-width="1" fill="none"></path></g></g><g stroke-linecap="round"><g transform="translate(1853.9898546110585 614.5228248946656) rotate(0 49.9798734484458 4.9954960962458586)"><path d="M0.64 -0.57 C1.23 0.15, 1.12 2.96, 3.51 4.44 C5.91 5.93, 10.66 7.19, 15.01 8.34 C19.37 9.49, 23.37 10.88, 29.65 11.36 C35.93 11.84, 44.26 11.75, 52.68 11.23 C61.1 10.72, 72.8 9.53, 80.15 8.28 C87.5 7.02, 93.39 5.29, 96.77 3.71 C100.15 2.13, 99.86 -0.38, 100.45 -1.2 M-0.49 1.71 C0.03 2.63, 0.48 4.61, 3.02 5.95 C5.56 7.28, 10.23 9.16, 14.75 9.71 C19.26 10.26, 23.45 8.89, 30.1 9.25 C36.75 9.62, 46.15 11.71, 54.67 11.9 C63.19 12.09, 74.1 11.38, 81.2 10.38 C88.3 9.37, 94.22 7.91, 97.26 5.86 C100.29 3.81, 98.57 -1.08, 99.39 -1.94" stroke="#0a11d3" stroke-width="1" fill="none"></path></g></g><g stroke-linecap="round" transform="translate(1852.7818860622187 568.6083865908114) rotate(0 49.87826257489519 10.087503356195441)"><path d="M37.87 -0.21 C46.66 -0.81, 59.22 -0.09, 68.31 0.7 C77.4 1.48, 87.31 3, 92.43 4.51 C97.55 6.02, 99.56 7.93, 99.03 9.76 C98.5 11.6, 95.24 13.84, 89.26 15.51 C83.29 17.18, 72.8 19.03, 63.17 19.77 C53.55 20.52, 40.81 20.78, 31.52 19.98 C22.23 19.17, 12.8 16.87, 7.43 14.96 C2.06 13.06, -1.26 10.29, -0.68 8.54 C-0.1 6.78, 3.49 5.73, 10.89 4.42 C18.29 3.12, 37.09 1.57, 43.74 0.73 C50.38 -0.12, 50.53 -0.77, 50.75 -0.63 M26.79 -0.22 C34.76 -1.12, 48.76 1.1, 58.61 1.58 C68.46 2.06, 79.09 1.62, 85.9 2.66 C92.71 3.69, 98.09 5.84, 99.46 7.79 C100.84 9.75, 98.53 12.61, 94.14 14.39 C89.75 16.17, 82.06 17.41, 73.12 18.46 C64.19 19.51, 50.63 20.9, 40.52 20.69 C30.41 20.48, 19.22 18.83, 12.45 17.18 C5.69 15.53, 0.79 12.52, -0.08 10.79 C-0.95 9.05, 2.32 8.21, 7.21 6.79 C12.11 5.38, 25.85 3.34, 29.27 2.29 C32.69 1.23, 27.36 0.37, 27.72 0.44" stroke="none" stroke-width="0" fill="#fff"></path><path d="M48.87 0.72 C57.95 0.6, 69.89 1.35, 77.79 2.21 C85.7 3.08, 93.03 4.15, 96.31 5.89 C99.59 7.64, 100.14 10.75, 97.46 12.68 C94.78 14.61, 87.95 16.32, 80.21 17.46 C72.48 18.6, 60.94 19.29, 51.04 19.54 C41.14 19.79, 28.98 19.83, 20.79 18.98 C12.6 18.13, 5.12 16.52, 1.91 14.44 C-1.3 12.36, -1.51 8.49, 1.55 6.5 C4.61 4.51, 11.05 3.71, 20.27 2.5 C29.49 1.29, 49.6 -0.38, 56.86 -0.75 C64.12 -1.11, 64.06 0.14, 63.84 0.31 M67.84 -0.42 C76.75 0.07, 86.13 1.91, 91.3 3.93 C96.46 5.94, 99.12 9.58, 98.83 11.7 C98.54 13.81, 95.81 15.31, 89.57 16.6 C83.33 17.88, 70.89 19.01, 61.39 19.4 C51.89 19.79, 41.57 19.71, 32.56 18.94 C23.55 18.17, 12.63 16.38, 7.31 14.76 C1.99 13.14, 0.15 11.16, 0.64 9.2 C1.13 7.23, 3.89 4.59, 10.25 2.96 C16.61 1.33, 29.19 -0.07, 38.8 -0.6 C48.41 -1.12, 63.16 -0.5, 67.92 -0.18 C72.68 0.14, 67.37 0.8, 67.38 1.34" stroke="#0a11d3" stroke-width="1" fill="none"></path></g><g stroke-linecap="round" transform="translate(1934.1681003890635 596.5784473904445) rotate(0 7.310137504681165 7.933736989774445)"><path d="M10.08 1.25 C11.36 2.02, 13.39 3.87, 14.01 5.41 C14.62 6.96, 14.22 8.88, 13.78 10.5 C13.33 12.12, 12.57 14.35, 11.33 15.13 C10.08 15.9, 8.03 15.33, 6.32 15.17 C4.62 15.01, 2.29 15.2, 1.08 14.18 C-0.14 13.16, -1.01 10.92, -0.96 9.05 C-0.91 7.19, 0.2 4.53, 1.38 2.98 C2.56 1.43, 4.43 0.05, 6.12 -0.25 C7.82 -0.55, 10.53 0.63, 11.55 1.19 C12.57 1.76, 12.12 2.88, 12.25 3.13 M10.85 1.2 C11.89 1.91, 11.37 3.18, 12.19 4.27 C13 5.37, 15.95 6.18, 15.74 7.78 C15.53 9.37, 12.06 12.47, 10.93 13.83 C9.79 15.19, 10.36 15.85, 8.93 15.93 C7.49 16.01, 3.94 15.34, 2.32 14.32 C0.71 13.3, -0.45 11.24, -0.77 9.79 C-1.08 8.34, -0.35 7.27, 0.43 5.63 C1.21 3.99, 2.28 1.09, 3.93 -0.03 C5.57 -1.14, 9.34 -1.06, 10.3 -1.06 C11.26 -1.05, 9.95 -0.58, 9.69 0.01" stroke="none" stroke-width="0" fill="#fff"></path><path d="M10.84 0.29 C12.31 0.67, 13.78 2.18, 14.24 3.7 C14.71 5.22, 14.08 7.67, 13.62 9.42 C13.16 11.16, 12.69 13.14, 11.48 14.19 C10.27 15.24, 7.98 15.9, 6.35 15.69 C4.72 15.48, 2.68 14.2, 1.73 12.92 C0.78 11.64, 0.57 9.62, 0.64 8 C0.7 6.37, 1.5 4.3, 2.13 3.16 C2.76 2.02, 2.82 1.32, 4.4 1.13 C5.98 0.95, 10.49 1.75, 11.63 2.03 C12.78 2.32, 11.46 2.86, 11.29 2.86 M4.18 -0.11 C5.14 -0.78, 6.93 -1.02, 8.34 -0.52 C9.75 -0.03, 11.46 1.02, 12.65 2.85 C13.84 4.68, 15.52 8.71, 15.46 10.43 C15.4 12.16, 13.67 12.08, 12.29 13.22 C10.9 14.35, 8.82 17.1, 7.17 17.23 C5.52 17.36, 3.65 15.15, 2.37 13.97 C1.1 12.8, -0.21 12.04, -0.5 10.19 C-0.79 8.34, -0.09 4.3, 0.63 2.87 C1.36 1.44, 3.35 2.06, 3.86 1.6 C4.36 1.14, 3.65 0.29, 3.65 0.11" stroke="#0a11d3" stroke-width="1" fill="none"></path></g><g stroke-linecap="round" transform="translate(1934.1681003890635 631.407522938258) rotate(0 7.310137504681165 7.933736989774445)"><path d="M9.7 0.28 C11.29 0.62, 13.11 1.53, 13.97 2.94 C14.84 4.35, 15.04 6.98, 14.87 8.74 C14.7 10.5, 14.25 12.46, 12.97 13.49 C11.69 14.52, 8.73 14.95, 7.2 14.93 C5.68 14.92, 4.89 14.25, 3.84 13.39 C2.79 12.54, 1.44 11.21, 0.89 9.81 C0.33 8.4, 0.02 6.59, 0.52 4.97 C1.01 3.36, 2.16 0.89, 3.85 0.13 C5.54 -0.63, 9.19 -0.23, 10.65 0.4 C12.1 1.04, 12.5 3.55, 12.59 3.93 M10.68 -0.85 C12.39 -0.38, 13.75 3.74, 14.17 5.24 C14.58 6.74, 13.54 6.46, 13.17 8.17 C12.79 9.87, 12.88 14.28, 11.9 15.49 C10.93 16.7, 8.82 15.84, 7.3 15.43 C5.77 15.02, 3.88 14.15, 2.73 13.04 C1.57 11.93, 0.41 10.41, 0.37 8.77 C0.33 7.13, 1.84 4.47, 2.5 3.19 C3.16 1.92, 3.32 1.55, 4.3 1.12 C5.29 0.69, 7.59 0.81, 8.42 0.61 C9.25 0.42, 8.86 -0.37, 9.29 -0.02" stroke="none" stroke-width="0" fill="#fff"></path><path d="M7.3 0.45 C8.64 0.16, 10.5 0.23, 11.66 1.26 C12.83 2.29, 14.01 4.91, 14.31 6.62 C14.6 8.34, 14.26 10.19, 13.43 11.56 C12.61 12.94, 10.98 14.15, 9.35 14.87 C7.72 15.58, 5.25 16.22, 3.67 15.84 C2.09 15.46, 0.54 14.31, -0.13 12.58 C-0.79 10.86, -0.95 7.25, -0.33 5.5 C0.3 3.74, 1.91 3.07, 3.63 2.06 C5.35 1.05, 8.71 -0.34, 9.99 -0.56 C11.27 -0.77, 11.44 0.63, 11.29 0.76 M9.32 -0.58 C10.78 -0.15, 12.16 1.55, 12.88 3.39 C13.6 5.24, 13.59 8.68, 13.66 10.49 C13.72 12.29, 14.49 13.39, 13.3 14.21 C12.1 15.03, 8.09 15.53, 6.5 15.39 C4.92 15.24, 4.91 14.5, 3.79 13.33 C2.67 12.16, 0.16 9.99, -0.2 8.36 C-0.56 6.73, 0.99 4.98, 1.63 3.54 C2.27 2.11, 2.06 0.39, 3.63 -0.25 C5.2 -0.9, 10.08 -0.33, 11.04 -0.32 C11.99 -0.31, 9.69 -0.53, 9.35 -0.19" stroke="#0a11d3" stroke-width="1" fill="none"></path></g><g stroke-linecap="round" transform="translate(1934.1681003890635 669.2621002941322) rotate(0 7.310137504681165 7.933736989774445)"><path d="M6.62 0.65 C8.09 0.38, 9.65 0.74, 10.94 1.7 C12.23 2.66, 13.89 4.92, 14.37 6.4 C14.85 7.89, 14.63 9.03, 13.82 10.61 C13.01 12.2, 11.08 14.97, 9.52 15.91 C7.96 16.86, 5.85 16.87, 4.48 16.27 C3.1 15.67, 1.93 13.88, 1.27 12.3 C0.61 10.73, 0.47 8.6, 0.52 6.82 C0.56 5.03, 0.36 2.77, 1.55 1.59 C2.74 0.4, 6.06 -0.2, 7.66 -0.28 C9.27 -0.36, 10.94 0.78, 11.18 1.1 M3.02 1.16 C4.34 0.06, 9.04 -1.4, 10.56 -1.01 C12.08 -0.62, 11.25 1.84, 12.16 3.49 C13.07 5.13, 16.04 7.14, 16 8.87 C15.96 10.59, 13.44 12.63, 11.92 13.84 C10.4 15.05, 8.43 15.8, 6.87 16.12 C5.3 16.45, 3.75 16.96, 2.53 15.81 C1.3 14.66, -0.31 11.38, -0.49 9.23 C-0.68 7.09, 0.6 4.47, 1.43 2.95 C2.26 1.43, 4.09 0.26, 4.48 0.12 C4.86 -0.01, 3.47 1.73, 3.75 2.14" stroke="none" stroke-width="0" fill="#fff"></path><path d="M8.93 -0.48 C10.15 -0.31, 11.12 1.13, 12.02 2.5 C12.93 3.88, 14.3 6.07, 14.35 7.78 C14.41 9.5, 13.4 11.61, 12.34 12.79 C11.29 13.97, 9.38 14.69, 8.04 14.88 C6.7 15.06, 5.41 14.67, 4.31 13.9 C3.22 13.13, 2.23 11.55, 1.45 10.25 C0.68 8.94, -0.74 7.48, -0.32 6.09 C0.1 4.7, 2.43 2.74, 3.99 1.92 C5.54 1.1, 7.89 1.27, 9.03 1.19 C10.16 1.1, 10.82 1.28, 10.78 1.42 M3.42 -0.31 C4.68 -1.02, 6.92 -1.34, 8.76 -0.42 C10.59 0.51, 13.45 3.73, 14.42 5.22 C15.38 6.7, 15.02 6.82, 14.57 8.49 C14.12 10.15, 12.97 14.02, 11.72 15.2 C10.47 16.39, 8.66 15.68, 7.06 15.59 C5.46 15.51, 3.31 15.94, 2.13 14.7 C0.95 13.46, 0.29 9.74, -0.03 8.16 C-0.35 6.57, -0.4 6.56, 0.22 5.19 C0.83 3.82, 3.1 0.81, 3.68 -0.07 C4.26 -0.95, 3.45 -0.53, 3.72 -0.09" stroke="#0a11d3" stroke-width="1" fill="none"></path></g><g stroke-linecap="round"><g transform="translate(776.9431545822024 253.4079076465663) rotate(269.10885802680116 -2.149069543664268 109.22242673214356)"><path d="M-0.13 0.01 C-0.46 36.62, -2.53 183.12, -3 219.47 M-1.65 -1.03 C-2.1 35.26, -3.8 181.06, -4.17 217.76" stroke="#000000" stroke-width="2" fill="none"></path></g><g transform="translate(776.9431545822024 253.4079076465663) rotate(269.10885802680116 -2.149069543664268 109.22242673214356)"><path d="M-14.1 188.73 C-10.67 195.1, -10.7 199.93, -4.14 218.73 M-15.01 189.93 C-12.1 195.15, -10.16 200.27, -3.22 217.96" stroke="#000000" stroke-width="2" fill="none"></path></g><g transform="translate(776.9431545822024 253.4079076465663) rotate(269.10885802680116 -2.149069543664268 109.22242673214356)"><path d="M6.41 188.96 C5.34 195.26, 0.81 200.04, -4.14 218.73 M5.51 190.16 C4.24 195.39, 2 200.47, -3.22 217.96" stroke="#000000" stroke-width="2" fill="none"></path></g></g><g transform="translate(1850.3938976461911 514.183542304034) rotate(0 57.5 13)"><text x="0" y="18" font-family="Virgil, Segoe UI Emoji" font-size="20px" fill="#000000" text-anchor="start" style="white-space: pre;" direction="ltr">PostgreSQL</text></g></svg>